<?xml version="1.0" encoding="UTF-8"?>
<!DOCTYPE svg PUBLIC "-//W3C//DTD SVG 1.1//EN" "http://www.w3.org/Graphics/SVG/1.1/DTD/svg11.dtd">
<svg xmlns="http://www.w3.org/2000/svg" version="1.1" width="1024px" height="1024px" style="shape-rendering:geometricPrecision; text-rendering:geometricPrecision; image-rendering:optimizeQuality; fill-rule:evenodd; clip-rule:evenodd" xmlns:xlink="http://www.w3.org/1999/xlink">
<g><path style="opacity:1" fill="#091618" d="M 329.5,264.5 C 335.242,268.735 340.575,273.568 345.5,279C 340.652,284.015 335.652,288.848 330.5,293.5C 325.348,288.848 320.348,284.015 315.5,279C 319.699,274.466 324.199,270.299 329,266.5C 329.464,265.906 329.631,265.239 329.5,264.5 Z"/></g>
<g><path style="opacity:1" fill="#0d191b" d="M 681.5,264.5 C 686.876,269.066 692.21,273.899 697.5,279C 692.623,284.213 687.456,289.046 682,293.5C 676.5,289.333 671.667,284.5 667.5,279C 672.348,274.319 677.014,269.486 681.5,264.5 Z"/></g>
<g><path style="opacity:1" fill="#061519" d="M 898.5,746.5 C 779.789,745.836 661.289,746.503 543,748.5C 541.333,747.833 539.667,747.167 538,746.5C 538.522,744.951 538.355,743.451 537.5,742C 538.022,741.05 538.689,740.216 539.5,739.5C 536.795,738.784 536.795,737.117 539.5,734.5C 539.911,735.262 540.077,736.262 540,737.5C 540.853,735.875 541.853,735.542 543,736.5C 544.756,735.579 544.923,734.412 543.5,733C 540.622,730.049 538.122,726.882 536,723.5C 535.71,725.952 535.044,728.285 534,730.5C 530.408,730.074 528.908,728.074 529.5,724.5C 531.805,721.593 533.138,718.259 533.5,714.5C 537.88,708.407 541.213,701.741 543.5,694.5C 543.5,694.167 543.5,693.833 543.5,693.5C 545.655,691.383 546.655,688.716 546.5,685.5C 547.626,680.12 548.96,674.787 550.5,669.5C 551.647,664.358 552.48,659.025 553,653.5C 553.5,640.838 553.667,628.171 553.5,615.5C 546.5,615.5 539.5,615.5 532.5,615.5C 530.167,615.5 527.833,615.5 525.5,615.5C 522.615,615.194 519.948,615.527 517.5,616.5C 517.888,622.171 516.721,627.504 514,632.5C 507.884,638.138 502.551,637.471 498,630.5C 496.75,625.58 496.25,620.58 496.5,615.5C 494.167,615.5 491.833,615.5 489.5,615.5C 486.833,615.5 484.167,615.5 481.5,615.5C 474.5,615.5 467.5,615.5 460.5,615.5C 460.333,629.504 460.5,643.504 461,657.5C 461.528,661.699 462.361,665.699 463.5,669.5C 464.232,675.094 465.565,680.427 467.5,685.5C 471.784,699.734 478.45,712.734 487.5,724.5C 490.89,728.558 493.89,732.891 496.5,737.5C 495.504,737.586 494.671,737.252 494,736.5C 493.667,737.167 493.333,737.833 493,738.5C 492.319,736.105 491.485,733.772 490.5,731.5C 487.551,732.447 485.551,731.28 484.5,728C 483.552,727.517 482.552,727.351 481.5,727.5C 482.231,729.599 482.231,731.599 481.5,733.5C 479.318,733.407 477.318,732.241 475.5,730C 476.193,727.448 477.527,725.281 479.5,723.5C 477.171,722.002 475.337,720.002 474,717.5C 472.272,722.282 472.105,727.115 473.5,732C 472.299,734.234 470.965,736.401 469.5,738.5C 469.59,740.425 470.59,741.592 472.5,742C 471.748,742.671 471.414,743.504 471.5,744.5C 452.147,721.437 440.647,694.771 437,664.5C 436.404,648.245 435.904,631.911 435.5,615.5C 425.254,612.311 417.754,605.977 413,596.5C 411.753,581.879 411.086,567.212 411,552.5C 397.431,557.448 385.098,564.448 374,573.5C 364.079,591.675 354.412,610.009 345,628.5C 338.352,639.382 329.185,642.216 317.5,637C 312.941,632.72 309.774,627.553 308,621.5C 297.894,576.037 294.227,530.037 297,483.5C 297.774,475.962 299.441,468.628 302,461.5C 317.838,431.138 336.171,402.471 357,375.5C 369,360.833 381,346.167 393,331.5C 394.635,241.76 428.135,166.593 493.5,106C 502.167,98.6667 510.833,98.6667 519.5,106C 584.553,166.304 618.053,241.138 620,330.5C 633.953,348.788 648.286,366.788 663,384.5C 680.919,407.985 696.585,432.985 710,459.5C 713.019,466.892 715.019,474.558 716,482.5C 718.63,529.352 714.963,575.685 705,621.5C 699.579,639.224 688.746,643.724 672.5,635C 660.952,614.74 649.786,594.24 639,573.5C 627.59,563.88 614.756,557.046 600.5,553C 600.893,560.697 601.226,568.53 601.5,576.5C 602.044,584.783 600.877,592.783 598,600.5C 596.542,602.96 594.709,605.127 592.5,607C 587.417,610.292 582.25,613.459 577,616.5C 581.682,657.764 573.349,696.097 552,731.5C 548.862,736.271 545.362,740.771 541.5,745C 660.667,745.167 779.667,745.667 898.5,746.5 Z"/></g>
<g><path style="opacity:1" fill="#c8d0d2" d="M 422.5,287.5 C 422.241,291.24 422.574,294.906 423.5,298.5C 421.265,301.934 419.932,305.601 419.5,309.5C 419.874,301.948 420.874,294.615 422.5,287.5 Z"/></g>
<g><path style="opacity:1" fill="#041417" d="M 553.5,243.5 C 561.267,255.789 563.6,269.123 560.5,283.5C 552.827,311.66 534.327,326.327 505,327.5C 483.819,325.96 468.152,315.96 458,297.5C 445.615,264.868 454.449,239.701 484.5,222C 505.303,214.246 524.637,216.912 542.5,230C 546.774,234.072 550.44,238.572 553.5,243.5 Z"/></g>
<g><path style="opacity:1" fill="#9cb0c1" d="M 502.5,272.5 C 501.833,273.833 500.833,274.833 499.5,275.5C 494.818,275.125 493.484,272.792 495.5,268.5C 497.396,267.534 499.396,267.201 501.5,267.5C 501.629,269.216 501.962,270.883 502.5,272.5 Z"/></g>
<g><path style="opacity:1" fill="#627482" d="M 518.5,242.5 C 517.241,243.979 516.241,245.646 515.5,247.5C 509.972,243.868 506.305,245.201 504.5,251.5C 505.855,255.917 508.855,257.584 513.5,256.5C 511.958,257.163 510.291,257.83 508.5,258.5C 508.421,262.11 507.587,265.776 506,269.5C 504.961,270.71 503.794,271.71 502.5,272.5C 501.962,270.883 501.629,269.216 501.5,267.5C 499.396,267.201 497.396,267.534 495.5,268.5C 493.484,272.792 494.818,275.125 499.5,275.5C 498.737,276.268 497.737,276.768 496.5,277C 497.009,279.693 498.009,282.193 499.5,284.5C 498.022,287.632 497.022,290.965 496.5,294.5C 495.5,295 494.5,295.5 493.5,296C 494.696,296.654 494.696,297.154 493.5,297.5C 492.833,296.5 492.167,295.5 491.5,294.5C 490.269,295.651 490.269,296.817 491.5,298C 490.906,298.464 490.239,298.631 489.5,298.5C 482.003,293.524 477.503,286.524 476,277.5C 474.147,259.029 481.98,246.863 499.5,241C 505.996,240.083 512.329,240.583 518.5,242.5 Z"/></g>
<g><path style="opacity:1" fill="#5a6c7a" d="M 518.5,242.5 C 537.515,252.532 543.015,267.532 535,287.5C 527.237,300.439 515.737,305.939 500.5,304C 496.213,303.19 492.546,301.357 489.5,298.5C 490.239,298.631 490.906,298.464 491.5,298C 490.269,296.817 490.269,295.651 491.5,294.5C 492.167,295.5 492.833,296.5 493.5,297.5C 494.696,297.154 494.696,296.654 493.5,296C 494.5,295.5 495.5,295 496.5,294.5C 497.022,290.965 498.022,287.632 499.5,284.5C 498.009,282.193 497.009,279.693 496.5,277C 497.737,276.768 498.737,276.268 499.5,275.5C 500.833,274.833 501.833,273.833 502.5,272.5C 503.794,271.71 504.961,270.71 506,269.5C 507.587,265.776 508.421,262.11 508.5,258.5C 510.291,257.83 511.958,257.163 513.5,256.5C 517.775,254.118 518.442,251.118 515.5,247.5C 516.241,245.646 517.241,243.979 518.5,242.5 Z"/></g>
<g><path style="opacity:1" fill="#9caec0" d="M 515.5,247.5 C 518.442,251.118 517.775,254.118 513.5,256.5C 508.855,257.584 505.855,255.917 504.5,251.5C 506.305,245.201 509.972,243.868 515.5,247.5 Z"/></g>
<g><path style="opacity:1" fill="#bbc9d2" d="M 532.5,156.5 C 567.543,199.068 587.709,248.068 593,303.5C 595.363,324.097 596.53,344.764 596.5,365.5C 598.004,412.271 594.338,458.605 585.5,504.5C 570.167,504.5 554.833,504.5 539.5,504.5C 539.5,502.833 539.5,501.167 539.5,499.5C 541.892,482.243 542.725,464.909 542,447.5C 540.8,441.404 539.3,435.404 537.5,429.5C 542.751,437.665 547.251,446.332 551,455.5C 555,466.167 559,476.833 563,487.5C 569.395,425.564 570.061,363.564 565,301.5C 564.217,294.801 563.217,288.135 562,281.5C 561.722,282.416 561.222,283.082 560.5,283.5C 563.6,269.123 561.267,255.789 553.5,243.5C 554.239,243.631 554.906,243.464 555.5,243C 551.07,230.709 547.237,218.209 544,205.5C 538.999,190.999 533.499,176.666 527.5,162.5C 527.833,161.833 528.167,161.167 528.5,160.5C 529.473,158.861 530.806,157.527 532.5,156.5 Z"/></g>
<g><path style="opacity:1" fill="#fbfcfc" d="M 501.5,132.5 C 502.376,132.369 503.043,132.702 503.5,133.5C 499.844,139.312 495.678,144.645 491,149.5C 490.326,153.141 488.492,155.808 485.5,157.5C 484.566,158.568 484.232,159.901 484.5,161.5C 486.483,161.843 487.817,161.176 488.5,159.5C 491.615,157.823 494.282,158.156 496.5,160.5C 496.408,164.071 498.074,165.238 501.5,164C 502.056,163.617 502.389,163.117 502.5,162.5C 504.401,161.069 506.568,160.069 509,159.5C 509.278,160.416 509.778,161.082 510.5,161.5C 511.431,163.022 512.598,164.355 514,165.5C 515.03,165.164 515.53,164.497 515.5,163.5C 516.385,160.94 518.051,158.94 520.5,157.5C 521.833,158.5 523.167,159.5 524.5,160.5C 525.29,161.401 526.29,162.068 527.5,162.5C 533.499,176.666 538.999,190.999 544,205.5C 547.237,218.209 551.07,230.709 555.5,243C 554.906,243.464 554.239,243.631 553.5,243.5C 550.44,238.572 546.774,234.072 542.5,230C 524.637,216.912 505.303,214.246 484.5,222C 454.449,239.701 445.615,264.868 458,297.5C 468.152,315.96 483.819,325.96 505,327.5C 534.327,326.327 552.827,311.66 560.5,283.5C 561.222,283.082 561.722,282.416 562,281.5C 563.217,288.135 564.217,294.801 565,301.5C 570.061,363.564 569.395,425.564 563,487.5C 559,476.833 555,466.167 551,455.5C 547.251,446.332 542.751,437.665 537.5,429.5C 534.291,420.257 528.957,412.424 521.5,406C 507.595,398.648 495.428,400.815 485,412.5C 476.974,424.24 472.308,437.24 471,451.5C 470.333,460.167 470.333,468.833 471,477.5C 472.163,485.473 472.997,493.473 473.5,501.5C 473.5,502.5 473.5,503.5 473.5,504.5C 458.167,504.5 442.833,504.5 427.5,504.5C 416.051,439.877 413.384,374.877 419.5,309.5C 419.932,305.601 421.265,301.934 423.5,298.5C 422.574,294.906 422.241,291.24 422.5,287.5C 431.878,226.897 458.211,175.231 501.5,132.5 Z"/></g>
<g><path style="opacity:1" fill="#101718" d="M 502.5,162.5 C 502.389,163.117 502.056,163.617 501.5,164C 498.074,165.238 496.408,164.071 496.5,160.5C 498.379,159.659 500.379,159.325 502.5,159.5C 502.5,160.5 502.5,161.5 502.5,162.5 Z"/></g>
<g><path style="opacity:1" fill="#131f22" d="M 515.5,163.5 C 515.53,164.497 515.03,165.164 514,165.5C 512.598,164.355 511.431,163.022 510.5,161.5C 511.552,159.744 513.219,159.077 515.5,159.5C 515.5,160.833 515.5,162.167 515.5,163.5 Z"/></g>
<g><path style="opacity:1" fill="#0a1313" d="M 485.5,157.5 C 487.179,157.285 488.179,157.952 488.5,159.5C 487.817,161.176 486.483,161.843 484.5,161.5C 484.232,159.901 484.566,158.568 485.5,157.5 Z"/></g>
<g><path style="opacity:1" fill="#051016" d="M 528.5,160.5 C 528.167,161.167 527.833,161.833 527.5,162.5C 526.29,162.068 525.29,161.401 524.5,160.5C 526.738,157.253 528.071,157.253 528.5,160.5 Z"/></g>
<g><path style="opacity:1" fill="#8da2b2" d="M 506.5,128.5 C 506.343,129.873 506.51,131.207 507,132.5C 512.527,140.218 517.027,148.551 520.5,157.5C 518.051,158.94 516.385,160.94 515.5,163.5C 515.5,162.167 515.5,160.833 515.5,159.5C 513.219,159.077 511.552,159.744 510.5,161.5C 509.778,161.082 509.278,160.416 509,159.5C 506.568,160.069 504.401,161.069 502.5,162.5C 502.5,161.5 502.5,160.5 502.5,159.5C 500.379,159.325 498.379,159.659 496.5,160.5C 494.282,158.156 491.615,157.823 488.5,159.5C 488.179,157.952 487.179,157.285 485.5,157.5C 488.492,155.808 490.326,153.141 491,149.5C 495.678,144.645 499.844,139.312 503.5,133.5C 503.043,132.702 502.376,132.369 501.5,132.5C 503.142,131.197 504.809,129.864 506.5,128.5 Z"/></g>
<g><path style="opacity:1" fill="#5d6f7d" d="M 506.5,128.5 C 516.241,136.905 524.907,146.238 532.5,156.5C 530.806,157.527 529.473,158.861 528.5,160.5C 528.071,157.253 526.738,157.253 524.5,160.5C 523.167,159.5 521.833,158.5 520.5,157.5C 517.027,148.551 512.527,140.218 507,132.5C 506.51,131.207 506.343,129.873 506.5,128.5 Z"/></g>
<g><path style="opacity:1" fill="#061518" d="M 271.5,307.5 C 273.484,307.383 275.15,308.05 276.5,309.5C 279.541,315.755 283.208,321.588 287.5,327C 293.201,328.207 298.868,329.54 304.5,331C 306.303,331.637 307.636,332.803 308.5,334.5C 304.227,340.059 299.727,345.392 295,350.5C 294.407,356.741 294.907,362.907 296.5,369C 295.792,373.051 293.459,374.718 289.5,374C 283.944,371.972 278.444,369.805 273,367.5C 267.556,369.805 262.056,371.972 256.5,374C 252.299,375.06 249.966,373.393 249.5,369C 250.868,363.227 251.368,357.393 251,351.5C 246.108,346.279 241.608,340.779 237.5,335C 238.154,333.013 239.487,331.68 241.5,331C 247.521,329.563 253.521,328.063 259.5,326.5C 263.261,319.97 267.261,313.636 271.5,307.5 Z"/></g>
<g><path style="opacity:1" fill="#061518" d="M 737.5,307.5 C 739.582,307.472 741.416,308.139 743,309.5C 745.66,315.49 748.826,321.156 752.5,326.5C 758.519,327.893 764.519,329.393 770.5,331C 772.303,331.637 773.636,332.803 774.5,334.5C 770.188,339.98 765.688,345.313 761,350.5C 760.375,356.581 760.875,362.581 762.5,368.5C 761.984,372.865 759.651,374.698 755.5,374C 749.944,371.972 744.444,369.805 739,367.5C 732.945,370.13 726.778,372.463 720.5,374.5C 718.399,374.368 716.899,373.368 716,371.5C 716.333,364.833 716.667,358.167 717,351.5C 713,346.833 709,342.167 705,337.5C 704.333,335.833 704.333,334.167 705,332.5C 711.959,329.707 719.125,327.54 726.5,326C 729.995,319.685 733.662,313.519 737.5,307.5 Z"/></g>
<g><path style="opacity:1" fill="#05161c" d="M 628.5,381.5 C 622.864,375.023 617.364,368.356 612,361.5C 612.113,407.359 609.28,453.026 603.5,498.5C 601.683,506.615 600.349,514.948 599.5,523.5C 599.803,525.114 600.47,526.448 601.5,527.5C 597.551,527.693 597.551,528.193 601.5,529C 599.835,529.788 598.169,530.122 596.5,530C 597.382,524.767 597.549,519.267 597,513.5C 596.667,514.167 596.333,514.833 596,515.5C 595.783,512.512 594.783,509.845 593,507.5C 592.667,508.167 592.333,508.833 592,509.5C 591.333,508.167 590.667,508.167 590,509.5C 589.501,514.823 589.334,520.156 589.5,525.5C 588.167,525.5 586.833,525.5 585.5,525.5C 585.307,529.449 584.807,529.449 584,525.5C 583.829,530.864 583.329,536.198 582.5,541.5C 581.655,545.351 579.322,547.351 575.5,547.5C 575.457,551.893 575.291,556.226 575,560.5C 576.667,559.167 578.333,559.167 580,560.5C 580.537,563.093 581.37,565.593 582.5,568C 581.093,570.302 581.259,572.469 583,574.5C 583.499,579.489 583.666,584.489 583.5,589.5C 580.956,589.104 578.789,589.771 577,591.5C 576.768,590.263 576.268,589.263 575.5,588.5C 576.471,579.584 576.804,570.584 576.5,561.5C 559.833,561.5 543.167,561.5 526.5,561.5C 526.709,560.078 527.209,558.745 528,557.5C 528.626,559.991 529.459,559.991 530.5,557.5C 531.321,554.553 531.821,551.553 532,548.5C 534.1,548.624 536.434,548.958 539,549.5C 540.167,549.333 541.333,549.167 542.5,549C 540.833,548.667 539.167,548.333 537.5,548C 543.016,547.827 548.349,547.327 553.5,546.5C 560.833,546.5 568.167,546.5 575.5,546.5C 577.486,538.256 579.153,529.923 580.5,521.5C 573.833,521.5 567.167,521.5 560.5,521.5C 552.5,521.5 544.5,521.5 536.5,521.5C 535.2,520.399 534.7,519.066 535,517.5C 543.176,517.401 551.343,517.401 559.5,517.5C 559.359,514.52 557.859,512.52 555,511.5C 548.905,513.342 543.238,514.342 538,514.5C 537.333,512.5 537.333,510.5 538,508.5C 538.654,509.696 539.154,509.696 539.5,508.5C 539.023,507.522 538.357,506.689 537.5,506C 538.78,503.868 538.78,501.702 537.5,499.5C 537.97,498.537 538.637,498.537 539.5,499.5C 539.5,501.167 539.5,502.833 539.5,504.5C 554.833,504.5 570.167,504.5 585.5,504.5C 594.338,458.605 598.004,412.271 596.5,365.5C 597.167,376.008 597.833,386.674 598.5,397.5C 599.796,404.041 600.462,404.041 600.5,397.5C 602.833,397.5 605.167,397.5 607.5,397.5C 607.168,384.816 607.501,372.149 608.5,359.5C 610.825,358.537 613.492,358.037 616.5,358C 618.113,360.228 618.78,362.728 618.5,365.5C 621.5,365.5 624.5,365.5 627.5,365.5C 627.15,370.515 627.817,375.348 629.5,380C 628.944,380.383 628.611,380.883 628.5,381.5 Z"/></g>
<g><path style="opacity:1" fill="#5c6a6a" d="M 400.5,361.5 C 400.56,360.957 400.893,360.624 401.5,360.5C 402.815,365.986 402.815,371.32 401.5,376.5C 401.821,371.305 401.487,366.305 400.5,361.5 Z"/></g>
<g><path style="opacity:1" fill="#031418" d="M 537.5,429.5 C 539.3,435.404 540.8,441.404 542,447.5C 542.725,464.909 541.892,482.243 539.5,499.5C 538.637,498.537 537.97,498.537 537.5,499.5C 538.78,501.702 538.78,503.868 537.5,506C 538.357,506.689 539.023,507.522 539.5,508.5C 539.154,509.696 538.654,509.696 538,508.5C 537.333,510.5 537.333,512.5 538,514.5C 543.238,514.342 548.905,513.342 555,511.5C 557.859,512.52 559.359,514.52 559.5,517.5C 551.343,517.401 543.176,517.401 535,517.5C 534.7,519.066 535.2,520.399 536.5,521.5C 535.908,524.127 535.575,526.794 535.5,529.5C 533.678,534.893 532.678,540.559 532.5,546.5C 539.5,546.5 546.5,546.5 553.5,546.5C 548.349,547.327 543.016,547.827 537.5,548C 539.167,548.333 540.833,548.667 542.5,549C 541.333,549.167 540.167,549.333 539,549.5C 536.434,548.958 534.1,548.624 532,548.5C 531.821,551.553 531.321,554.553 530.5,557.5C 529.459,559.991 528.626,559.991 528,557.5C 527.209,558.745 526.709,560.078 526.5,561.5C 526.5,561.833 526.5,562.167 526.5,562.5C 525.508,565.823 524.508,569.156 523.5,572.5C 520.899,576.771 517.566,580.437 513.5,583.5C 510.346,585.026 507.013,585.693 503.5,585.5C 500.243,584.538 497.243,583.038 494.5,581C 493.182,578.176 491.515,575.676 489.5,573.5C 488.736,570.982 487.736,568.649 486.5,566.5C 486.5,566.167 486.5,565.833 486.5,565.5C 486.167,564.167 485.833,562.833 485.5,561.5C 484.901,556.304 483.567,551.304 481.5,546.5C 481.768,544.901 481.434,543.568 480.5,542.5C 480.324,539.273 479.657,536.273 478.5,533.5C 478.656,529.236 477.989,525.236 476.5,521.5C 476.284,514.587 475.284,507.92 473.5,501.5C 472.997,493.473 472.163,485.473 471,477.5C 470.333,468.833 470.333,460.167 471,451.5C 472.308,437.24 476.974,424.24 485,412.5C 495.428,400.815 507.595,398.648 521.5,406C 528.957,412.424 534.291,420.257 537.5,429.5 Z"/></g>
<g><path style="opacity:1" fill="#f8fbfb" d="M 402.5,413.5 C 402.5,416.833 402.5,420.167 402.5,423.5C 399.25,425.243 396.416,427.577 394,430.5C 384.5,443.333 375,456.167 365.5,469C 358.817,472.311 354.817,470.311 353.5,463C 354.245,460.008 355.412,457.174 357,454.5C 367.667,441.167 378.333,427.833 389,414.5C 393.224,408.277 397.724,407.944 402.5,413.5 Z"/></g>
<g><path style="opacity:1" fill="#f3f7f8" d="M 400.5,361.5 C 401.487,366.305 401.821,371.305 401.5,376.5C 401.5,377.167 401.5,377.833 401.5,378.5C 398.386,379.091 395.886,380.758 394,383.5C 370.875,409.734 351.209,438.401 335,469.5C 332.865,475.705 331.199,482.038 330,488.5C 329.5,512.831 329.333,537.164 329.5,561.5C 329.139,565.915 327.806,569.915 325.5,573.5C 321.891,544.277 320.724,514.943 322,485.5C 324.498,472.168 329.498,459.834 337,448.5C 355.731,417.697 376.898,388.697 400.5,361.5 Z"/></g>
<g><path style="opacity:1" fill="#879dae" d="M 628.5,381.5 C 650.384,408.244 669.551,436.91 686,467.5C 687.87,473.442 689.536,479.442 691,485.5C 691.536,513.913 690.37,542.247 687.5,570.5C 681.944,558.595 674.278,548.095 664.5,539C 646.166,524.996 626.166,513.829 604.5,505.5C 603.526,503.257 603.192,500.924 603.5,498.5C 609.28,453.026 612.113,407.359 612,361.5C 617.364,368.356 622.864,375.023 628.5,381.5 Z"/></g>
<g><path style="opacity:0.624" fill="#586567" d="M 260.5,424.5 C 264.937,425.113 269.27,425.78 273.5,426.5C 268.706,427.097 264.373,426.43 260.5,424.5 Z"/></g>
<g><path style="opacity:1" fill="#0a171a" d="M 260.5,424.5 C 264.373,426.43 268.706,427.097 273.5,426.5C 280.937,429.757 281.27,433.59 274.5,438C 270.129,438.172 265.796,438.672 261.5,439.5C 261.186,444.291 260.686,448.958 260,453.5C 256.254,457.393 252.588,457.393 249,453.5C 248.589,448.481 248.089,443.481 247.5,438.5C 242.821,438.666 238.155,438.499 233.5,438C 227.94,433.478 228.273,429.478 234.5,426C 238.871,425.828 243.204,425.328 247.5,424.5C 248.274,420.221 248.774,415.887 249,411.5C 252.618,407.695 256.284,407.695 260,411.5C 260.499,415.821 260.666,420.154 260.5,424.5 Z"/></g>
<g><path style="opacity:1" fill="#0a181b" d="M 751.5,408.5 C 754.365,408.055 756.865,408.722 759,410.5C 760.379,415.036 760.879,419.703 760.5,424.5C 765.196,424.671 769.863,425.171 774.5,426C 779.815,429.717 779.815,433.383 774.5,437C 769.882,437.994 765.215,438.494 760.5,438.5C 760.666,442.846 760.499,447.179 760,451.5C 757.082,455.883 753.415,456.55 749,453.5C 747.675,448.599 747.175,443.599 747.5,438.5C 742.851,437.935 738.184,437.435 733.5,437C 729.5,433.333 729.5,429.667 733.5,426C 738.363,425.971 743.03,425.138 747.5,423.5C 748.274,419.221 748.774,414.887 749,410.5C 749.995,409.934 750.828,409.267 751.5,408.5 Z"/></g>
<g><path style="opacity:1" fill="#f6f9f9" d="M 504.5,428.5 C 505.497,447.326 505.83,466.326 505.5,485.5C 505.83,503.008 505.497,520.341 504.5,537.5C 499.791,511.538 496.791,485.372 495.5,459C 494.785,447.652 497.785,437.485 504.5,428.5 Z"/></g>
<g><path style="opacity:1" fill="#ccd9e4" d="M 504.5,428.5 C 504.5,427.833 504.833,427.5 505.5,427.5C 506.833,446.833 506.833,466.167 505.5,485.5C 505.83,466.326 505.497,447.326 504.5,428.5 Z"/></g>
<g><path style="opacity:1" fill="#071518" d="M 809.5,447.5 C 835.219,447.72 849.886,460.553 853.5,486C 850.569,509.264 837.402,522.097 814,524.5C 790.698,522.364 777.864,509.697 775.5,486.5C 776.934,464.74 788.268,451.74 809.5,447.5 Z M 812.5,468.5 C 829.479,471.465 834.645,480.798 828,496.5C 820.171,504.535 811.671,505.369 802.5,499C 794.005,488.64 795.005,479.307 805.5,471C 808.004,470.302 810.337,469.469 812.5,468.5 Z"/></g>
<g><path style="opacity:1" fill="#879cac" d="M 505.5,427.5 C 506.892,426.478 508.225,426.811 509.5,428.5C 514.934,437.777 517.6,447.777 517.5,458.5C 516.184,485.396 513.017,512.062 508,538.5C 506.59,542.139 505.423,541.806 504.5,537.5C 505.497,520.341 505.83,503.008 505.5,485.5C 506.833,466.167 506.833,446.833 505.5,427.5 Z"/></g>
<g><path style="opacity:1" fill="#889eaf" d="M 401.5,378.5 C 401.728,390.17 402.062,401.837 402.5,413.5C 397.724,407.944 393.224,408.277 389,414.5C 378.333,427.833 367.667,441.167 357,454.5C 355.412,457.174 354.245,460.008 353.5,463C 354.817,470.311 358.817,472.311 365.5,469C 375,456.167 384.5,443.333 394,430.5C 396.416,427.577 399.25,425.243 402.5,423.5C 404.175,448.573 406.508,473.573 409.5,498.5C 410.037,501.972 409.037,504.805 406.5,507C 382.556,515.046 361.39,527.546 343,544.5C 338.481,550.236 333.981,555.903 329.5,561.5C 329.333,537.164 329.5,512.831 330,488.5C 331.199,482.038 332.865,475.705 335,469.5C 351.209,438.401 370.875,409.734 394,383.5C 395.886,380.758 398.386,379.091 401.5,378.5 Z"/></g>
<g><path style="opacity:1" fill="#081618" d="M 185.5,466.5 C 208.313,466.49 222.479,477.49 228,499.5C 229.073,522.421 218.573,536.921 196.5,543C 179.351,545.507 165.851,539.673 156,525.5C 145.779,503.934 150.279,486.101 169.5,472C 174.715,469.429 180.048,467.596 185.5,466.5 Z M 188.5,487.5 C 202.633,490.134 208.133,498.467 205,512.5C 197.578,523.658 188.411,525.324 177.5,517.5C 171.439,510.216 170.939,502.549 176,494.5C 179.464,490.69 183.631,488.356 188.5,487.5 Z"/></g>
<g><path style="opacity:1" fill="#243540" d="M 473.5,501.5 C 475.284,507.92 476.284,514.587 476.5,521.5C 476.167,521.5 475.833,521.5 475.5,521.5C 460.794,520.85 446.461,521.517 432.5,523.5C 430.447,519.137 428.947,514.47 428,509.5C 427.5,508.333 426.667,507.5 425.5,507C 426.756,506.583 427.423,505.75 427.5,504.5C 442.833,504.5 458.167,504.5 473.5,504.5C 473.5,503.5 473.5,502.5 473.5,501.5 Z"/></g>
<g><path style="opacity:1" fill="#586a77" d="M 409.5,498.5 C 411.058,506.158 412.392,513.991 413.5,522C 413.167,523.5 412.833,525 412.5,526.5C 398.442,531.462 384.775,537.296 371.5,544C 362,550.167 354.167,558 348,567.5C 341.723,579.721 335.723,592.054 330,604.5C 328.066,594.227 326.566,583.894 325.5,573.5C 327.806,569.915 329.139,565.915 329.5,561.5C 333.981,555.903 338.481,550.236 343,544.5C 361.39,527.546 382.556,515.046 406.5,507C 409.037,504.805 410.037,501.972 409.5,498.5 Z"/></g>
<g><path style="opacity:1" fill="#f8fbfc" d="M 475.5,521.5 C 474.722,522.156 474.056,522.989 473.5,524C 475.282,528.721 474.282,529.887 470.5,527.5C 463.841,529.397 457.508,531.731 451.5,534.5C 447.818,534.665 444.152,534.499 440.5,534C 438.283,532.277 435.95,530.777 433.5,529.5C 432.85,527.565 432.517,525.565 432.5,523.5C 446.461,521.517 460.794,520.85 475.5,521.5 Z"/></g>
<g><path style="opacity:1" fill="#8ea6b8" d="M 536.5,521.5 C 544.5,521.5 552.5,521.5 560.5,521.5C 560.443,525.505 559.11,529.005 556.5,532C 549.589,533.384 542.589,533.884 535.5,533.5C 535.5,532.167 535.5,530.833 535.5,529.5C 535.575,526.794 535.908,524.127 536.5,521.5 Z"/></g>
<g><path style="opacity:1" fill="#dde8f1" d="M 475.5,521.5 C 475.833,521.5 476.167,521.5 476.5,521.5C 477.989,525.236 478.656,529.236 478.5,533.5C 469.682,534.493 460.682,534.827 451.5,534.5C 457.508,531.731 463.841,529.397 470.5,527.5C 474.282,529.887 475.282,528.721 473.5,524C 474.056,522.989 474.722,522.156 475.5,521.5 Z"/></g>
<g><path style="opacity:1" fill="#8aa0b1" d="M 433.5,529.5 C 435.95,530.777 438.283,532.277 440.5,534C 444.152,534.499 447.818,534.665 451.5,534.5C 460.682,534.827 469.682,534.493 478.5,533.5C 479.657,536.273 480.324,539.273 480.5,542.5C 480.5,543.5 480.5,544.5 480.5,545.5C 465.755,545.816 451.088,545.483 436.5,544.5C 435.627,539.469 434.627,534.469 433.5,529.5 Z"/></g>
<g><path style="opacity:1" fill="#566774" d="M 560.5,521.5 C 567.167,521.5 573.833,521.5 580.5,521.5C 579.153,529.923 577.486,538.256 575.5,546.5C 568.167,546.5 560.833,546.5 553.5,546.5C 546.5,546.5 539.5,546.5 532.5,546.5C 532.678,540.559 533.678,534.893 535.5,529.5C 535.5,530.833 535.5,532.167 535.5,533.5C 542.589,533.884 549.589,533.384 556.5,532C 559.11,529.005 560.443,525.505 560.5,521.5 Z"/></g>
<g><path style="opacity:1" fill="#586978" d="M 603.5,498.5 C 603.192,500.924 603.526,503.257 604.5,505.5C 626.166,513.829 646.166,524.996 664.5,539C 674.278,548.095 681.944,558.595 687.5,570.5C 686.574,581.572 685.074,592.572 683,603.5C 677.674,592.201 672.341,580.868 667,569.5C 660.167,558.667 651.333,549.833 640.5,543C 627.918,536.706 614.918,531.539 601.5,527.5C 600.47,526.448 599.803,525.114 599.5,523.5C 600.349,514.948 601.683,506.615 603.5,498.5 Z"/></g>
<g><path style="opacity:1" fill="#5f7280" d="M 480.5,542.5 C 481.434,543.568 481.768,544.901 481.5,546.5C 466.833,546.5 452.167,546.5 437.5,546.5C 436.662,546.158 436.328,545.492 436.5,544.5C 451.088,545.483 465.755,545.816 480.5,545.5C 480.5,544.5 480.5,543.5 480.5,542.5 Z"/></g>
<g><path style="opacity:1" fill="#12262e" d="M 437.5,546.5 C 452.167,546.5 466.833,546.5 481.5,546.5C 483.567,551.304 484.901,556.304 485.5,561.5C 469.167,561.5 452.833,561.5 436.5,561.5C 437.596,557.587 437.762,553.587 437,549.5C 436.25,548.874 435.416,548.374 434.5,548C 435.737,547.768 436.737,547.268 437.5,546.5 Z"/></g>
<g><path style="opacity:1" fill="#97a5ae" d="M 436.5,562.5 C 436.5,562.167 436.5,561.833 436.5,561.5C 452.833,561.5 469.167,561.5 485.5,561.5C 485.833,562.833 486.167,564.167 486.5,565.5C 484.199,564.94 481.866,564.44 479.5,564C 480.5,563.667 481.5,563.333 482.5,563C 479.518,562.502 476.518,562.335 473.5,562.5C 461.167,562.5 448.833,562.5 436.5,562.5 Z"/></g>
<g><path style="opacity:1" fill="#f8fcfd" d="M 436.5,562.5 C 448.833,562.5 461.167,562.5 473.5,562.5C 469.395,563.026 465.395,564.192 461.5,566C 469.827,566.5 478.16,566.666 486.5,566.5C 487.736,568.649 488.736,570.982 489.5,573.5C 473.672,574.661 457.672,574.828 441.5,574C 439.497,573.665 437.83,572.832 436.5,571.5C 436.5,568.5 436.5,565.5 436.5,562.5 Z"/></g>
<g><path style="opacity:0.048" fill="#899597" d="M 240.5,565.5 C 241.069,569.329 240.402,572.663 238.5,575.5C 239.097,572.059 239.763,568.725 240.5,565.5 Z"/></g>
<g><path style="opacity:1" fill="#bac7d3" d="M 473.5,562.5 C 476.518,562.335 479.518,562.502 482.5,563C 481.5,563.333 480.5,563.667 479.5,564C 481.866,564.44 484.199,564.94 486.5,565.5C 486.5,565.833 486.5,566.167 486.5,566.5C 478.16,566.666 469.827,566.5 461.5,566C 465.395,564.192 469.395,563.026 473.5,562.5 Z"/></g>
<g><path style="opacity:1" fill="#0f1b1d" d="M 831.5,557.5 C 836.145,560.145 839.812,563.812 842.5,568.5C 839.457,572.544 835.791,575.877 831.5,578.5C 826.959,576.127 823.626,572.627 821.5,568C 824.35,563.984 827.684,560.484 831.5,557.5 Z"/></g>
<g><path style="opacity:1" fill="#8c9fb1" d="M 526.5,562.5 C 542.833,562.5 559.167,562.5 575.5,562.5C 576.044,566.673 575.377,570.506 573.5,574C 565.167,574.167 556.833,574.333 548.5,574.5C 539.806,574.498 531.472,573.831 523.5,572.5C 524.508,569.156 525.508,565.823 526.5,562.5 Z"/></g>
<g><path style="opacity:1" fill="#0c181c" d="M 764.5,558.5 C 767.374,558.623 769.874,559.623 772,561.5C 772.934,565.986 773.434,570.486 773.5,575C 777.833,575.333 782.167,575.667 786.5,576C 791.028,578.824 791.695,582.49 788.5,587C 783.628,588.388 778.628,588.888 773.5,588.5C 773.695,592.915 773.195,597.249 772,601.5C 768.379,606.799 764.713,606.799 761,601.5C 760.501,597.179 760.334,592.846 760.5,588.5C 755.821,588.666 751.155,588.499 746.5,588C 741.416,584.287 741.249,580.453 746,576.5C 750.714,575.887 755.381,575.221 760,574.5C 760.333,570.5 760.667,566.5 761,562.5C 762.102,561.051 763.269,559.718 764.5,558.5 Z"/></g>
<g><path style="opacity:1" fill="#849cae" d="M 436.5,571.5 C 437.83,572.832 439.497,573.665 441.5,574C 457.672,574.828 473.672,574.661 489.5,573.5C 491.515,575.676 493.182,578.176 494.5,581C 497.243,583.038 500.243,584.538 503.5,585.5C 504.263,586.268 505.263,586.768 506.5,587C 505.833,587.333 505.167,587.667 504.5,588C 505.406,589.699 505.739,591.533 505.5,593.5C 485.164,593.667 464.831,593.5 444.5,593C 441.639,591.168 439.139,589.001 437,586.5C 436.501,581.511 436.334,576.511 436.5,571.5 Z"/></g>
<g><path style="opacity:1" fill="#091619" d="M 238.5,575.5 C 240.402,572.663 241.069,569.329 240.5,565.5C 241.127,559.686 244.127,557.853 249.5,560C 250.333,560.833 251.167,561.667 252,562.5C 252.499,566.821 252.666,571.154 252.5,575.5C 257.628,575.112 262.628,575.612 267.5,577C 271.687,581.46 271.02,585.127 265.5,588C 261.5,588.333 257.5,588.667 253.5,589C 252.7,593.08 252.2,597.247 252,601.5C 248.623,606.197 244.957,606.53 241,602.5C 239.775,597.915 239.275,593.248 239.5,588.5C 234.821,588.666 230.155,588.499 225.5,588C 220.101,583.577 220.435,579.577 226.5,576C 230.486,575.501 234.486,575.334 238.5,575.5 Z"/></g>
<g><path style="opacity:1" fill="#596b7a" d="M 526.5,562.5 C 526.5,562.167 526.5,561.833 526.5,561.5C 543.167,561.5 559.833,561.5 576.5,561.5C 576.804,570.584 576.471,579.584 575.5,588.5C 573.529,589.823 571.529,591.156 569.5,592.5C 548.177,593.5 526.844,593.833 505.5,593.5C 505.739,591.533 505.406,589.699 504.5,588C 505.167,587.667 505.833,587.333 506.5,587C 505.263,586.768 504.263,586.268 503.5,585.5C 507.013,585.693 510.346,585.026 513.5,583.5C 517.566,580.437 520.899,576.771 523.5,572.5C 531.472,573.831 539.806,574.498 548.5,574.5C 556.833,574.333 565.167,574.167 573.5,574C 575.377,570.506 576.044,566.673 575.5,562.5C 559.167,562.5 542.833,562.5 526.5,562.5 Z"/></g>
<g><path style="opacity:1" fill="#0d1a1a" d="M 163.5,595.5 C 168.606,597.438 172.272,600.938 174.5,606C 172,609.833 168.833,613 165,615.5C 159.164,613.366 156.164,609.366 156,603.5C 158.705,600.964 161.205,598.297 163.5,595.5 Z"/></g>
<g><path style="opacity:1" fill="#fbfbf8" d="M 489.5,615.5 C 491.833,615.5 494.167,615.5 496.5,615.5C 496.25,620.58 496.75,625.58 498,630.5C 502.551,637.471 507.884,638.138 514,632.5C 516.721,627.504 517.888,622.171 517.5,616.5C 519.5,616.5 521.5,616.5 523.5,616.5C 523.5,625.167 523.5,633.833 523.5,642.5C 522.113,653.379 519.78,664.046 516.5,674.5C 514.239,677.366 512.739,680.699 512,684.5C 510.316,686.351 508.483,688.018 506.5,689.5C 503.893,683.45 500.56,677.783 496.5,672.5C 496.737,671.209 496.404,670.209 495.5,669.5C 492.844,658.824 490.844,648.157 489.5,637.5C 489.5,630.167 489.5,622.833 489.5,615.5 Z"/></g>
<g><path style="opacity:1" fill="#e8c396" d="M 517.5,616.5 C 519.948,615.527 522.615,615.194 525.5,615.5C 524.859,624.599 524.192,633.599 523.5,642.5C 523.5,633.833 523.5,625.167 523.5,616.5C 521.5,616.5 519.5,616.5 517.5,616.5 Z"/></g>
<g><path style="opacity:1" fill="#e24419" d="M 480.5,617.5 C 479.243,640.778 482.243,663.445 489.5,685.5C 487.191,684.612 485.524,682.946 484.5,680.5C 483.433,670.35 481.599,660.35 479,650.5C 478.833,645 478.667,639.5 478.5,634C 478.505,628.124 479.171,622.624 480.5,617.5 Z"/></g>
<g><path style="opacity:1" fill="#a54536" d="M 481.5,615.5 C 481.5,615.833 481.5,616.167 481.5,616.5C 481.167,616.5 480.833,616.5 480.5,616.5C 474.5,616.5 468.5,616.5 462.5,616.5C 462.2,630.882 462.534,645.215 463.5,659.5C 463.5,662.833 463.5,666.167 463.5,669.5C 462.361,665.699 461.528,661.699 461,657.5C 460.5,643.504 460.333,629.504 460.5,615.5C 467.5,615.5 474.5,615.5 481.5,615.5 Z"/></g>
<g><path style="opacity:1" fill="#852924" d="M 532.5,616.5 C 532.5,616.167 532.5,615.833 532.5,615.5C 539.5,615.5 546.5,615.5 553.5,615.5C 553.667,628.171 553.5,640.838 553,653.5C 552.48,659.025 551.647,664.358 550.5,669.5C 551.211,651.842 551.545,634.176 551.5,616.5C 545.833,616.5 540.167,616.5 534.5,616.5C 533.833,616.5 533.167,616.5 532.5,616.5 Z"/></g>
<g><path style="opacity:1" fill="#041417" d="M 792.5,625.5 C 794.17,625.751 795.67,626.418 797,627.5C 801.293,634.585 805.46,641.751 809.5,649C 818.092,651.252 826.759,653.252 835.5,655C 837.5,655.667 838.833,657 839.5,659C 833.739,666.765 827.239,673.931 820,680.5C 819.694,687.869 820.194,695.203 821.5,702.5C 821.673,708.828 818.673,711.328 812.5,710C 805.938,707.219 799.271,704.719 792.5,702.5C 786.172,704.997 779.838,707.497 773.5,710C 767.984,711.925 764.651,710.091 763.5,704.5C 765.149,696.902 765.649,689.235 765,681.5C 758.958,675.127 753.292,668.46 748,661.5C 746.86,658.472 747.694,656.305 750.5,655C 759.219,653.356 767.886,651.523 776.5,649.5C 780.586,642.997 784.419,636.33 788,629.5C 789.397,627.93 790.897,626.596 792.5,625.5 Z"/></g>
<g><path style="opacity:1" fill="#df5921" d="M 532.5,616.5 C 533.167,616.5 533.833,616.5 534.5,616.5C 533.719,630.468 533.219,644.468 533,658.5C 530.875,664.668 529.541,671.001 529,677.5C 526.125,680.542 524.792,684.209 525,688.5C 524.586,688.043 524.086,687.709 523.5,687.5C 522.482,689.594 521.482,691.594 520.5,693.5C 522.05,687.315 524.217,681.315 527,675.5C 531.445,657.779 533.278,639.779 532.5,621.5C 532.5,619.833 532.5,618.167 532.5,616.5 Z"/></g>
<g><path style="opacity:1" fill="#041417" d="M 218.5,625.5 C 221.099,625.549 223.266,626.549 225,628.5C 228.788,635.912 232.955,643.079 237.5,650C 245.833,651.667 254.167,653.333 262.5,655C 265.722,656.99 266.222,659.49 264,662.5C 256.932,668.733 250.765,675.733 245.5,683.5C 246.871,690.095 247.871,696.761 248.5,703.5C 248.712,706.011 248.045,708.178 246.5,710C 242.764,710.61 239.097,710.277 235.5,709C 230.275,706.554 224.942,704.387 219.5,702.5C 212.729,704.719 206.062,707.219 199.5,710C 193.585,711.718 190.585,709.551 190.5,703.5C 191.775,695.865 192.275,688.198 192,680.5C 185.592,674.762 179.925,668.429 175,661.5C 174.08,658.692 174.913,656.525 177.5,655C 186.167,653.333 194.833,651.667 203.5,650C 208.386,641.722 213.386,633.555 218.5,625.5 Z"/></g>
<g><path style="opacity:1" fill="#ecb45f" d="M 525.5,615.5 C 527.833,615.5 530.167,615.5 532.5,615.5C 532.5,615.833 532.5,616.167 532.5,616.5C 532.5,618.167 532.5,619.833 532.5,621.5C 531.566,620.432 531.232,619.099 531.5,617.5C 529.833,617.5 528.167,617.5 526.5,617.5C 525.821,628.988 525.154,640.488 524.5,652C 524.58,653.894 524.913,655.727 525.5,657.5C 523.656,661.217 522.989,665.217 523.5,669.5C 522.167,669.5 520.833,669.5 519.5,669.5C 519.836,675.839 517.836,681.172 513.5,685.5C 514.297,681.777 515.297,678.11 516.5,674.5C 519.78,664.046 522.113,653.379 523.5,642.5C 524.192,633.599 524.859,624.599 525.5,615.5 Z"/></g>
<g><path style="opacity:1" fill="#f43926" d="M 480.5,616.5 C 480.5,616.833 480.5,617.167 480.5,617.5C 479.171,622.624 478.505,628.124 478.5,634C 478.667,639.5 478.833,645 479,650.5C 481.599,660.35 483.433,670.35 484.5,680.5C 485.524,682.946 487.191,684.612 489.5,685.5C 490.674,686.514 491.34,687.847 491.5,689.5C 490.715,693.64 491.881,696.973 495,699.5C 495.497,701.81 495.663,704.143 495.5,706.5C 491.805,707.187 490.805,709.187 492.5,712.5C 495.47,712.254 496.803,710.588 496.5,707.5C 500.068,707.759 501.401,709.759 500.5,713.5C 497.612,713.22 496.112,714.553 496,717.5C 493.372,719.126 491.039,721.126 489,723.5C 487.873,720.623 487.206,717.623 487,714.5C 481.968,712.116 479.134,708.116 478.5,702.5C 480.607,699.725 480.941,696.725 479.5,693.5C 478.667,695.5 477.833,697.5 477,699.5C 475.833,696.167 474.667,692.833 473.5,689.5C 472.914,689.709 472.414,690.043 472,690.5C 471.866,687.712 472.199,685.045 473,682.5C 472.667,682.167 472.333,681.833 472,681.5C 471.418,684.668 470.418,685.001 469,682.5C 468.333,680.167 468.333,677.833 469,675.5C 469.893,676.711 470.726,676.711 471.5,675.5C 469.955,674.548 468.288,674.215 466.5,674.5C 466.666,670.486 466.499,666.486 466,662.5C 465.148,661.429 464.315,660.429 463.5,659.5C 462.534,645.215 462.2,630.882 462.5,616.5C 468.5,616.5 474.5,616.5 480.5,616.5 Z"/></g>
<g><path style="opacity:1" fill="#a24239" d="M 463.5,669.5 C 465.822,674.488 467.155,679.821 467.5,685.5C 465.565,680.427 464.232,675.094 463.5,669.5 Z"/></g>
<g><path style="opacity:1" fill="#f7bc4e" d="M 481.5,615.5 C 484.167,615.5 486.833,615.5 489.5,615.5C 489.5,622.833 489.5,630.167 489.5,637.5C 489.442,647.897 490.776,658.064 493.5,668C 493.836,669.03 494.503,669.53 495.5,669.5C 494.808,673.721 495.808,677.387 498.5,680.5C 497.583,683.758 497.249,687.091 497.5,690.5C 501.302,691.32 504.636,692.986 507.5,695.5C 506.893,698.076 505.726,700.409 504,702.5C 503.506,700.866 503.34,699.199 503.5,697.5C 500.956,697.896 498.789,697.229 497,695.5C 493.77,689.711 491.104,683.711 489,677.5C 483.906,657.492 481.406,637.159 481.5,616.5C 481.5,616.167 481.5,615.833 481.5,615.5 Z"/></g>
<g><path style="opacity:1" fill="#f3381f" d="M 540.5,695.5 C 538.375,702.033 535.209,708.033 531,713.5C 530.51,714.793 530.343,716.127 530.5,717.5C 528.983,717.511 527.816,718.177 527,719.5C 524.696,723.797 521.696,727.464 518,730.5C 516.991,732.025 516.491,733.692 516.5,735.5C 513.569,737.091 510.902,739.091 508.5,741.5C 505.079,741.762 504.079,740.428 505.5,737.5C 510.099,735.735 512.599,732.402 513,727.5C 516.29,725.519 519.29,723.186 522,720.5C 523.166,717.497 524.833,714.83 527,712.5C 527.684,711.216 527.517,710.049 526.5,709C 528.497,706.508 529.497,703.675 529.5,700.5C 532.049,700.559 534.049,699.559 535.5,697.5C 536.484,694.572 536.817,691.572 536.5,688.5C 537.5,688.5 538.5,688.5 539.5,688.5C 539.829,682.794 539.495,677.128 538.5,671.5C 536.286,673.924 535.286,673.257 535.5,669.5C 536.833,669.5 538.167,669.5 539.5,669.5C 539.168,648.487 540.501,648.487 543.5,669.5C 544.5,669.5 545.5,669.5 546.5,669.5C 546.665,672.85 546.498,676.183 546,679.5C 543.769,684.731 541.936,690.065 540.5,695.5 Z"/></g>
<g><path style="opacity:1" fill="#f9b251" d="M 480.5,616.5 C 480.833,616.5 481.167,616.5 481.5,616.5C 481.406,637.159 483.906,657.492 489,677.5C 491.104,683.711 493.77,689.711 497,695.5C 498.789,697.229 500.956,697.896 503.5,697.5C 503.34,699.199 503.506,700.866 504,702.5C 505.726,700.409 506.893,698.076 507.5,695.5C 509.533,693.837 511.366,691.837 513,689.5C 513.49,688.207 513.657,686.873 513.5,685.5C 517.836,681.172 519.836,675.839 519.5,669.5C 520.833,669.5 522.167,669.5 523.5,669.5C 522.989,665.217 523.656,661.217 525.5,657.5C 524.913,655.727 524.58,653.894 524.5,652C 525.154,640.488 525.821,628.988 526.5,617.5C 528.167,617.5 529.833,617.5 531.5,617.5C 531.232,619.099 531.566,620.432 532.5,621.5C 533.278,639.779 531.445,657.779 527,675.5C 524.217,681.315 522.05,687.315 520.5,693.5C 516.012,699.797 511.512,706.13 507,712.5C 500.43,705.766 495.264,698.1 491.5,689.5C 491.34,687.847 490.674,686.514 489.5,685.5C 482.243,663.445 479.243,640.778 480.5,617.5C 480.5,617.167 480.5,616.833 480.5,616.5 Z"/></g>
<g><path style="opacity:1" fill="#ebc174" d="M 489.5,637.5 C 490.844,648.157 492.844,658.824 495.5,669.5C 494.503,669.53 493.836,669.03 493.5,668C 490.776,658.064 489.442,647.897 489.5,637.5 Z"/></g>
<g><path style="opacity:1" fill="#4e150e" d="M 546.5,685.5 C 546.655,688.716 545.655,691.383 543.5,693.5C 543.98,690.557 544.98,687.89 546.5,685.5 Z"/></g>
<g><path style="opacity:1" fill="#bf4443" d="M 467.5,685.5 C 471.409,691.658 474.576,698.325 477,705.5C 480.524,711.888 484.024,718.221 487.5,724.5C 478.45,712.734 471.784,699.734 467.5,685.5 Z"/></g>
<g><path style="opacity:1" fill="#0a1619" d="M 380.5,697.5 C 386.422,701.751 391.755,706.751 396.5,712.5C 391.804,718.03 386.637,723.03 381,727.5C 375.363,723.03 370.196,718.03 365.5,712.5C 370.827,707.839 375.827,702.839 380.5,697.5 Z"/></g>
<g><path style="opacity:1" fill="#0b171b" d="M 308.5,697.5 C 309.239,697.369 309.906,697.536 310.5,698C 314.676,703.342 319.343,708.176 324.5,712.5C 319.833,717.833 314.833,722.833 309.5,727.5C 303.718,723.221 298.385,718.388 293.5,713C 298.703,707.965 303.703,702.798 308.5,697.5 Z"/></g>
<g><path style="opacity:1" fill="#be3d30" d="M 543.5,694.5 C 541.213,701.741 537.88,708.407 533.5,714.5C 532.728,715.694 531.728,716.694 530.5,717.5C 530.343,716.127 530.51,714.793 531,713.5C 535.209,708.033 538.375,702.033 540.5,695.5C 541.391,694.89 542.391,694.557 543.5,694.5 Z"/></g>
<g><path style="opacity:1" fill="#081619" d="M 702.5,697.5 C 708.422,701.751 713.755,706.751 718.5,712.5C 713.833,717.833 708.833,722.833 703.5,727.5C 698.14,722.806 693.14,717.806 688.5,712.5C 693.527,707.807 698.194,702.807 702.5,697.5 Z"/></g>
<g><path style="opacity:1" fill="#0c181a" d="M 630.5,697.5 C 635.839,702.506 641.173,707.506 646.5,712.5C 641.515,717.985 636.348,723.319 631,728.5C 625.652,723.319 620.485,717.985 615.5,712.5C 620.827,707.839 625.827,702.839 630.5,697.5 Z"/></g>
<g><path style="opacity:1" fill="#ee3c27" d="M 534.5,616.5 C 540.167,616.5 545.833,616.5 551.5,616.5C 551.545,634.176 551.211,651.842 550.5,669.5C 548.96,674.787 547.626,680.12 546.5,685.5C 544.98,687.89 543.98,690.557 543.5,693.5C 543.5,693.833 543.5,694.167 543.5,694.5C 542.391,694.557 541.391,694.89 540.5,695.5C 541.936,690.065 543.769,684.731 546,679.5C 546.498,676.183 546.665,672.85 546.5,669.5C 545.5,669.5 544.5,669.5 543.5,669.5C 540.501,648.487 539.168,648.487 539.5,669.5C 538.167,669.5 536.833,669.5 535.5,669.5C 535.286,673.257 536.286,673.924 538.5,671.5C 539.495,677.128 539.829,682.794 539.5,688.5C 538.5,688.5 537.5,688.5 536.5,688.5C 536.817,691.572 536.484,694.572 535.5,697.5C 534.049,699.559 532.049,700.559 529.5,700.5C 529.497,703.675 528.497,706.508 526.5,709C 527.517,710.049 527.684,711.216 527,712.5C 524.833,714.83 523.166,717.497 522,720.5C 519.29,723.186 516.29,725.519 513,727.5C 512.599,732.402 510.099,735.735 505.5,737.5C 504.079,740.428 505.079,741.762 508.5,741.5C 507.399,742.598 506.066,742.765 504.5,742C 498.98,737.144 494.147,731.644 490,725.5C 489.329,724.748 488.496,724.414 487.5,724.5C 484.024,718.221 480.524,711.888 477,705.5C 474.576,698.325 471.409,691.658 467.5,685.5C 467.155,679.821 465.822,674.488 463.5,669.5C 463.5,666.167 463.5,662.833 463.5,659.5C 464.315,660.429 465.148,661.429 466,662.5C 466.499,666.486 466.666,670.486 466.5,674.5C 468.288,674.215 469.955,674.548 471.5,675.5C 470.726,676.711 469.893,676.711 469,675.5C 468.333,677.833 468.333,680.167 469,682.5C 470.418,685.001 471.418,684.668 472,681.5C 472.333,681.833 472.667,682.167 473,682.5C 472.199,685.045 471.866,687.712 472,690.5C 472.414,690.043 472.914,689.709 473.5,689.5C 474.667,692.833 475.833,696.167 477,699.5C 477.833,697.5 478.667,695.5 479.5,693.5C 480.941,696.725 480.607,699.725 478.5,702.5C 479.134,708.116 481.968,712.116 487,714.5C 487.206,717.623 487.873,720.623 489,723.5C 491.039,721.126 493.372,719.126 496,717.5C 496.112,714.553 497.612,713.22 500.5,713.5C 501.401,709.759 500.068,707.759 496.5,707.5C 496.803,710.588 495.47,712.254 492.5,712.5C 490.805,709.187 491.805,707.187 495.5,706.5C 495.663,704.143 495.497,701.81 495,699.5C 491.881,696.973 490.715,693.64 491.5,689.5C 495.264,698.1 500.43,705.766 507,712.5C 511.512,706.13 516.012,699.797 520.5,693.5C 521.482,691.594 522.482,689.594 523.5,687.5C 524.086,687.709 524.586,688.043 525,688.5C 524.792,684.209 526.125,680.542 529,677.5C 529.541,671.001 530.875,664.668 533,658.5C 533.219,644.468 533.719,630.468 534.5,616.5 Z"/></g>
<g><path style="opacity:1" fill="#f1bc68" d="M 495.5,669.5 C 496.404,670.209 496.737,671.209 496.5,672.5C 499.015,679.205 502.015,685.705 505.5,692C 506.5,692.667 507.5,692.667 508.5,692C 510.794,690.22 512.461,688.053 513.5,685.5C 513.657,686.873 513.49,688.207 513,689.5C 511.366,691.837 509.533,693.837 507.5,695.5C 504.636,692.986 501.302,691.32 497.5,690.5C 497.249,687.091 497.583,683.758 498.5,680.5C 495.808,677.387 494.808,673.721 495.5,669.5 Z"/></g>
<g><path style="opacity:1" fill="#fdf4d1" d="M 496.5,672.5 C 500.56,677.783 503.893,683.45 506.5,689.5C 508.483,688.018 510.316,686.351 512,684.5C 512.739,680.699 514.239,677.366 516.5,674.5C 515.297,678.11 514.297,681.777 513.5,685.5C 512.461,688.053 510.794,690.22 508.5,692C 507.5,692.667 506.5,692.667 505.5,692C 502.015,685.705 499.015,679.205 496.5,672.5 Z"/></g>
<g><path style="opacity:1" fill="#290e06" d="M 533.5,714.5 C 533.138,718.259 531.805,721.593 529.5,724.5C 527.5,725.976 525.833,727.809 524.5,730C 523.552,730.483 522.552,730.649 521.5,730.5C 524.747,726.341 527.747,722.008 530.5,717.5C 531.728,716.694 532.728,715.694 533.5,714.5 Z"/></g>
<g><path style="opacity:1" fill="#031316" d="M 898.5,746.5 C 924.129,747.633 939.962,760.633 946,785.5C 946.667,812.167 946.667,838.833 946,865.5C 941.32,885.511 929.154,898.345 909.5,904C 644.867,905.496 380.201,905.996 115.5,905.5C 134.267,904.134 152.6,903.634 170.5,904C 167.5,903.667 164.5,903.333 161.5,903C 166.833,902.667 172.167,902.333 177.5,902C 265.687,901.523 353.687,901.356 441.5,901.5C 545.504,901.203 649.504,901.536 753.5,902.5C 798.496,901.756 843.496,901.256 888.5,901C 889.46,899.581 890.293,898.081 891,896.5C 895.333,896.833 899.667,897.167 904,897.5C 905.188,896.437 905.688,895.103 905.5,893.5C 900.167,893.5 894.833,893.5 889.5,893.5C 889.5,890.833 889.5,888.167 889.5,885.5C 886.833,885.5 884.167,885.5 881.5,885.5C 881.5,883.167 881.5,880.833 881.5,878.5C 885.956,878.607 886.956,877.107 884.5,874C 887.478,874.589 890.478,874.256 893.5,873C 892.167,872.667 890.833,872.333 889.5,872C 894.864,871.171 900.198,871.337 905.5,872.5C 900.279,873.624 900.279,874.458 905.5,875C 905.342,878.288 905.342,881.788 905.5,885.5C 910.833,885.5 916.167,885.5 921.5,885.5C 921.5,887.833 921.5,890.167 921.5,892.5C 922.833,892.5 924.167,892.5 925.5,892.5C 926.109,888.437 924.775,885.27 921.5,883C 924.667,882.5 926.5,880.667 927,877.5C 927.645,878.646 928.478,879.646 929.5,880.5C 931.917,881.072 934.084,882.072 936,883.5C 937.63,880.215 938.13,876.882 937.5,873.5C 938.54,871.477 939.54,869.477 940.5,867.5C 939.469,865.618 938.635,863.618 938,861.5C 937.5,837.502 937.333,813.502 937.5,789.5C 936.167,789.5 934.833,789.5 933.5,789.5C 933.5,786.833 933.5,784.167 933.5,781.5C 932.167,781.5 930.833,781.5 929.5,781.5C 929.5,778.833 929.5,776.167 929.5,773.5C 926.833,773.5 924.167,773.5 921.5,773.5C 921.5,770.833 921.5,768.167 921.5,765.5C 916.167,765.5 910.833,765.5 905.5,765.5C 905.5,764.167 905.5,762.833 905.5,761.5C 900.167,761.5 894.833,761.5 889.5,761.5C 889.5,760.167 889.5,758.833 889.5,757.5C 857.5,757.5 825.5,757.5 793.5,757.5C 793.5,758.833 793.5,760.167 793.5,761.5C 790.833,761.5 788.167,761.5 785.5,761.5C 785.5,760.167 785.5,758.833 785.5,757.5C 782.833,757.5 780.167,757.5 777.5,757.5C 777.5,758.833 777.5,760.167 777.5,761.5C 774.833,761.5 772.167,761.5 769.5,761.5C 769.5,768.167 769.5,774.833 769.5,781.5C 768.167,781.5 766.833,781.5 765.5,781.5C 765.5,784.167 765.5,786.833 765.5,789.5C 772.146,790.505 778.813,790.505 785.5,789.5C 785.5,792.167 785.5,794.833 785.5,797.5C 793.84,797.666 802.173,797.5 810.5,797C 809.565,794.619 809.232,792.119 809.5,789.5C 822.833,789.5 836.167,789.5 849.5,789.5C 849.5,792.167 849.5,794.833 849.5,797.5C 852.698,796.964 855.365,797.631 857.5,799.5C 851.907,799.193 846.407,799.527 841,800.5C 840.5,821.831 840.333,843.164 840.5,864.5C 839.25,864.577 838.417,865.244 838,866.5C 837.717,863.258 836.883,862.924 835.5,865.5C 832.81,863.652 832.977,861.985 836,860.5C 836.667,847.5 836.667,834.5 836,821.5C 835.667,826.833 835.333,832.167 835,837.5C 834.833,833.667 834.667,829.833 834.5,826C 834.765,819.052 835.099,812.219 835.5,805.5C 835.24,803.813 834.573,802.313 833.5,801C 836.849,800.911 837.349,799.744 835,797.5C 834.259,798.641 833.425,798.641 832.5,797.5C 829.948,818.753 828.948,840.086 829.5,861.5C 830.5,861.5 831.5,861.5 832.5,861.5C 832.98,866.822 833.313,872.155 833.5,877.5C 830.833,877.5 828.167,877.5 825.5,877.5C 824.948,875.669 824.948,874.003 825.5,872.5C 823.257,871.526 820.924,871.192 818.5,871.5C 818.5,872.5 818.5,873.5 818.5,874.5C 815.934,874.344 813.434,874.678 811,875.5C 809.238,875.056 809.405,874.556 811.5,874C 808.78,871.106 805.947,870.939 803,873.5C 799.309,872.778 796.476,871.778 794.5,870.5C 799.205,869.327 803.039,866.66 806,862.5C 807.128,865.207 808.628,867.707 810.5,870C 815.489,870.499 820.489,870.666 825.5,870.5C 825.014,851.473 824.181,832.473 823,813.5C 819.587,806.418 814.087,801.918 806.5,800C 794.087,797.088 782.253,798.588 771,804.5C 771.939,809.4 773.772,814.066 776.5,818.5C 783.103,815.013 790.103,813.513 797.5,814C 804.972,816.817 806.305,821.151 801.5,827C 790.644,825.96 780.644,828.293 771.5,834C 765.818,839.203 763.151,845.703 763.5,853.5C 763.279,856.097 762.779,856.097 762,853.5C 761.503,850.854 761.336,848.187 761.5,845.5C 760.5,845.5 759.5,845.5 758.5,845.5C 758.5,848.167 758.5,850.833 758.5,853.5C 757.5,853.5 756.5,853.5 755.5,853.5C 756.769,860.113 757.269,866.78 757,873.5C 755.087,875.187 752.92,875.687 750.5,875C 751.5,874.667 752.5,874.333 753.5,874C 749.143,872.812 744.81,872.479 740.5,873C 741.942,872.623 742.942,871.79 743.5,870.5C 746.5,870.5 749.5,870.5 752.5,870.5C 753.489,865.025 753.822,859.358 753.5,853.5C 751.833,853.5 750.167,853.5 748.5,853.5C 746.376,852.969 744.876,851.635 744,849.5C 743.828,824.261 743.328,799.094 742.5,774C 736.251,773.191 730.084,773.358 724,774.5C 723.5,798.498 723.333,822.498 723.5,846.5C 722.668,824.337 722.168,802.004 722,779.5C 721.667,796.5 721.333,813.5 721,830.5C 720.125,828.487 718.791,828.487 717,830.5C 714.931,829.736 712.764,829.236 710.5,829C 709.976,826.07 708.642,823.57 706.5,821.5C 704.947,823.265 704.614,825.098 705.5,827C 703.74,829.483 701.573,829.983 699,828.5C 695.346,833.485 690.346,836.485 684,837.5C 678.335,837.366 672.502,837.366 666.5,837.5C 666.5,838.833 666.5,840.167 666.5,841.5C 671.179,841.334 675.845,841.501 680.5,842C 681.337,843.011 681.67,844.178 681.5,845.5C 685.206,844.478 688.539,842.644 691.5,840C 693.473,839.505 695.473,839.338 697.5,839.5C 697.833,841.5 698.167,843.5 698.5,845.5C 695.5,845.5 692.5,845.5 689.5,845.5C 689.5,846.833 689.5,848.167 689.5,849.5C 686.833,849.5 684.167,849.5 681.5,849.5C 681.5,850.833 681.5,852.167 681.5,853.5C 680.167,853.5 678.833,853.5 677.5,853.5C 677.5,856.167 677.5,858.833 677.5,861.5C 676.167,861.5 674.833,861.5 673.5,861.5C 673.5,864.167 673.5,866.833 673.5,869.5C 672.167,869.5 670.833,869.5 669.5,869.5C 669.5,872.167 669.5,874.833 669.5,877.5C 668.167,877.5 666.833,877.5 665.5,877.5C 665.5,880.167 665.5,882.833 665.5,885.5C 664.167,885.5 662.833,885.5 661.5,885.5C 661.5,888.167 661.5,890.833 661.5,893.5C 668.167,893.5 674.833,893.5 681.5,893.5C 681.5,894.833 681.5,896.167 681.5,897.5C 652.167,897.5 622.833,897.5 593.5,897.5C 591.628,895.938 589.295,894.938 586.5,894.5C 554.174,893.5 521.84,893.167 489.5,893.5C 489.5,890.833 489.5,888.167 489.5,885.5C 494.833,885.5 500.167,885.5 505.5,885.5C 505.5,884.167 505.5,882.833 505.5,881.5C 508.167,881.5 510.833,881.5 513.5,881.5C 513.5,880.167 513.5,878.833 513.5,877.5C 518.833,877.5 524.167,877.5 529.5,877.5C 529.5,879.833 529.5,882.167 529.5,884.5C 537.483,885.166 545.483,885.499 553.5,885.5C 553.5,886.833 553.5,888.167 553.5,889.5C 561.5,889.5 569.5,889.5 577.5,889.5C 577.5,885.5 577.5,881.5 577.5,877.5C 579.527,877.662 581.527,877.495 583.5,877C 581.405,876.444 581.238,875.944 583,875.5C 583.945,875.905 584.612,876.572 585,877.5C 585.497,874.854 585.664,872.187 585.5,869.5C 590.833,869.5 596.167,869.5 601.5,869.5C 601.5,866.833 601.5,864.167 601.5,861.5C 607.176,861.666 612.843,861.499 618.5,861C 617.365,856.252 617.198,851.419 618,846.5C 619,845.167 620,845.167 621,846.5C 620.895,852.126 621.895,857.459 624,862.5C 624.317,860.699 624.984,860.366 626,861.5C 626.903,855.831 626.403,850.331 624.5,845C 625.451,844.282 625.617,843.449 625,842.5C 624,843.5 623,844.5 622,845.5C 622.05,843.248 623.216,841.582 625.5,840.5C 624.412,836.614 623.579,836.614 623,840.5C 620.095,844.327 617.095,844.327 614,840.5C 608.594,840.186 603.094,840.52 597.5,841.5C 594.678,841.448 592.011,840.781 589.5,839.5C 588.304,839.846 588.304,840.346 589.5,841C 586.667,841.167 585.167,842.667 585,845.5C 581.171,844.813 577.337,844.48 573.5,844.5C 569.367,844.799 565.367,845.632 561.5,847C 563.301,847.317 563.634,847.984 562.5,849C 565.095,849.226 567.595,849.726 570,850.5C 571.067,849.809 572.234,849.309 573.5,849C 570.833,848.333 570.833,847.667 573.5,847C 575.353,846.449 576.687,847.115 577.5,849C 576.833,849.333 576.167,849.667 575.5,850C 576.752,851.828 576.752,853.661 575.5,855.5C 574.621,853.77 573.288,852.437 571.5,851.5C 562.892,856.074 553.892,857.241 544.5,855C 538.608,851.94 535.274,847.106 534.5,840.5C 549.5,840.5 564.5,840.5 579.5,840.5C 582.771,821.877 576.105,808.377 559.5,800C 557.414,799.685 555.414,799.185 553.5,798.5C 555.948,797.527 558.615,797.194 561.5,797.5C 561.5,794.833 561.5,792.167 561.5,789.5C 569.5,789.5 577.5,789.5 585.5,789.5C 585.169,797.196 585.503,804.862 586.5,812.5C 589.421,813.407 592.421,813.74 595.5,813.5C 595.5,814.833 595.5,816.167 595.5,817.5C 597.792,817.756 599.959,817.423 602,816.5C 601.793,814.249 601.627,811.915 601.5,809.5C 604.167,809.5 606.833,809.5 609.5,809.5C 609.5,811.167 609.5,812.833 609.5,814.5C 612.167,814.5 614.833,814.5 617.5,814.5C 617.08,816.674 617.08,818.674 617.5,820.5C 617.145,821.522 616.478,822.189 615.5,822.5C 607.826,822.334 600.159,822.5 592.5,823C 588.957,827.795 588.624,832.795 591.5,838C 599.73,839.604 608.063,839.937 616.5,839C 620.542,834.863 621.542,830.03 619.5,824.5C 619.948,822.535 620.948,822.202 622.5,823.5C 623.875,825.376 625.042,827.376 626,829.5C 626.617,820.006 627.117,810.506 627.5,801C 627.541,793.746 626.874,786.579 625.5,779.5C 630.375,778.164 630.542,776.164 626,773.5C 625.503,770.854 625.336,768.187 625.5,765.5C 622.833,765.5 620.167,765.5 617.5,765.5C 617.5,764.167 617.5,762.833 617.5,761.5C 604.167,761.5 590.833,761.5 577.5,761.5C 577.5,760.167 577.5,758.833 577.5,757.5C 566.833,757.5 556.167,757.5 545.5,757.5C 545.5,762.833 545.5,768.167 545.5,773.5C 529.5,773.5 513.5,773.5 497.5,773.5C 497.5,768.167 497.5,762.833 497.5,757.5C 494.833,757.5 492.167,757.5 489.5,757.5C 489.192,755.076 489.526,752.743 490.5,750.5C 492.877,749.415 495.211,748.248 497.5,747C 495.487,746.32 494.154,744.987 493.5,743C 494.8,741.42 496.134,739.92 497.5,738.5C 500.81,740.146 503.477,742.48 505.5,745.5C 505.917,746.124 506.584,746.457 507.5,746.5C 511.777,743.727 515.61,740.393 519,736.5C 519.41,735.099 519.91,733.766 520.5,732.5C 520.833,731.833 521.167,731.167 521.5,730.5C 522.552,730.649 523.552,730.483 524.5,730C 525.833,727.809 527.5,725.976 529.5,724.5C 528.908,728.074 530.408,730.074 534,730.5C 535.044,728.285 535.71,725.952 536,723.5C 538.122,726.882 540.622,730.049 543.5,733C 544.923,734.412 544.756,735.579 543,736.5C 541.853,735.542 540.853,735.875 540,737.5C 540.077,736.262 539.911,735.262 539.5,734.5C 536.795,737.117 536.795,738.784 539.5,739.5C 538.689,740.216 538.022,741.05 537.5,742C 538.355,743.451 538.522,744.951 538,746.5C 539.667,747.167 541.333,747.833 543,748.5C 661.289,746.503 779.789,745.836 898.5,746.5 Z"/></g>
<g><path style="opacity:1" fill="#cb4431" d="M 530.5,717.5 C 527.747,722.008 524.747,726.341 521.5,730.5C 521.167,731.167 520.833,731.833 520.5,732.5C 518.57,732.771 517.236,733.771 516.5,735.5C 516.491,733.692 516.991,732.025 518,730.5C 521.696,727.464 524.696,723.797 527,719.5C 527.816,718.177 528.983,717.511 530.5,717.5 Z"/></g>
<g><path style="opacity:1" fill="#031317" d="M 496.5,737.5 C 497.167,737.5 497.5,737.833 497.5,738.5C 496.134,739.92 494.8,741.42 493.5,743C 494.154,744.987 495.487,746.32 497.5,747C 495.211,748.248 492.877,749.415 490.5,750.5C 489.526,752.743 489.192,755.076 489.5,757.5C 492.167,757.5 494.833,757.5 497.5,757.5C 497.5,762.833 497.5,768.167 497.5,773.5C 513.5,773.5 529.5,773.5 545.5,773.5C 545.5,768.167 545.5,762.833 545.5,757.5C 556.167,757.5 566.833,757.5 577.5,757.5C 577.5,758.833 577.5,760.167 577.5,761.5C 590.833,761.5 604.167,761.5 617.5,761.5C 617.5,762.833 617.5,764.167 617.5,765.5C 620.167,765.5 622.833,765.5 625.5,765.5C 625.336,768.187 625.503,770.854 626,773.5C 630.542,776.164 630.375,778.164 625.5,779.5C 626.874,786.579 627.541,793.746 627.5,801C 627.117,810.506 626.617,820.006 626,829.5C 625.042,827.376 623.875,825.376 622.5,823.5C 620.948,822.202 619.948,822.535 619.5,824.5C 618.005,824.011 616.671,823.345 615.5,822.5C 616.478,822.189 617.145,821.522 617.5,820.5C 617.08,818.674 617.08,816.674 617.5,814.5C 614.833,814.5 612.167,814.5 609.5,814.5C 609.5,812.833 609.5,811.167 609.5,809.5C 606.833,809.5 604.167,809.5 601.5,809.5C 601.627,811.915 601.793,814.249 602,816.5C 599.959,817.423 597.792,817.756 595.5,817.5C 595.5,816.167 595.5,814.833 595.5,813.5C 592.421,813.74 589.421,813.407 586.5,812.5C 585.503,804.862 585.169,797.196 585.5,789.5C 577.5,789.5 569.5,789.5 561.5,789.5C 561.5,792.167 561.5,794.833 561.5,797.5C 558.615,797.194 555.948,797.527 553.5,798.5C 539.679,797.162 528.846,802.162 521,813.5C 511.906,831.594 514.072,848.094 527.5,863C 541.621,872.823 556.621,874.156 572.5,867C 574.874,866.152 576.874,864.819 578.5,863C 577.349,860.535 576.349,858.035 575.5,855.5C 576.752,853.661 576.752,851.828 575.5,850C 576.167,849.667 576.833,849.333 577.5,849C 576.687,847.115 575.353,846.449 573.5,847C 570.833,847.667 570.833,848.333 573.5,849C 572.234,849.309 571.067,849.809 570,850.5C 567.595,849.726 565.095,849.226 562.5,849C 563.634,847.984 563.301,847.317 561.5,847C 565.367,845.632 569.367,844.799 573.5,844.5C 577.337,844.48 581.171,844.813 585,845.5C 585.167,842.667 586.667,841.167 589.5,841C 588.304,840.346 588.304,839.846 589.5,839.5C 592.011,840.781 594.678,841.448 597.5,841.5C 603.094,840.52 608.594,840.186 614,840.5C 617.095,844.327 620.095,844.327 623,840.5C 623.579,836.614 624.412,836.614 625.5,840.5C 623.216,841.582 622.05,843.248 622,845.5C 623,844.5 624,843.5 625,842.5C 625.617,843.449 625.451,844.282 624.5,845C 626.403,850.331 626.903,855.831 626,861.5C 624.984,860.366 624.317,860.699 624,862.5C 621.895,857.459 620.895,852.126 621,846.5C 620,845.167 619,845.167 618,846.5C 617.198,851.419 617.365,856.252 618.5,861C 612.843,861.499 607.176,861.666 601.5,861.5C 601.5,864.167 601.5,866.833 601.5,869.5C 596.167,869.5 590.833,869.5 585.5,869.5C 585.664,872.187 585.497,874.854 585,877.5C 584.612,876.572 583.945,875.905 583,875.5C 581.238,875.944 581.405,876.444 583.5,877C 581.527,877.495 579.527,877.662 577.5,877.5C 577.5,881.5 577.5,885.5 577.5,889.5C 569.5,889.5 561.5,889.5 553.5,889.5C 553.5,888.167 553.5,886.833 553.5,885.5C 545.483,885.499 537.483,885.166 529.5,884.5C 529.5,882.167 529.5,879.833 529.5,877.5C 524.167,877.5 518.833,877.5 513.5,877.5C 513.5,878.833 513.5,880.167 513.5,881.5C 510.833,881.5 508.167,881.5 505.5,881.5C 505.5,882.833 505.5,884.167 505.5,885.5C 500.167,885.5 494.833,885.5 489.5,885.5C 489.5,888.167 489.5,890.833 489.5,893.5C 521.84,893.167 554.174,893.5 586.5,894.5C 589.295,894.938 591.628,895.938 593.5,897.5C 542.833,897.5 492.167,897.5 441.5,897.5C 441.5,898.833 441.5,900.167 441.5,901.5C 353.687,901.356 265.687,901.523 177.5,902C 172.167,902.333 166.833,902.667 161.5,903C 164.5,903.333 167.5,903.667 170.5,904C 152.6,903.634 134.267,904.134 115.5,905.5C 89.7843,904.241 73.6177,891.241 67,866.5C 66.0417,837.793 66.375,809.126 68,780.5C 75.5142,758.985 90.6809,747.485 113.5,746C 233.001,745.833 352.334,745.333 471.5,744.5C 471.414,743.504 471.748,742.671 472.5,742C 470.59,741.592 469.59,740.425 469.5,738.5C 470.965,736.401 472.299,734.234 473.5,732C 472.105,727.115 472.272,722.282 474,717.5C 475.337,720.002 477.171,722.002 479.5,723.5C 477.527,725.281 476.193,727.448 475.5,730C 477.318,732.241 479.318,733.407 481.5,733.5C 482.231,731.599 482.231,729.599 481.5,727.5C 482.552,727.351 483.552,727.517 484.5,728C 485.551,731.28 487.551,732.447 490.5,731.5C 491.485,733.772 492.319,736.105 493,738.5C 493.333,737.833 493.667,737.167 494,736.5C 494.671,737.252 495.504,737.586 496.5,737.5 Z"/></g>
<g><path style="opacity:1" fill="#b14133" d="M 487.5,724.5 C 488.496,724.414 489.329,724.748 490,725.5C 494.147,731.644 498.98,737.144 504.5,742C 506.066,742.765 507.399,742.598 508.5,741.5C 510.902,739.091 513.569,737.091 516.5,735.5C 514.045,740.294 510.378,743.628 505.5,745.5C 503.477,742.48 500.81,740.146 497.5,738.5C 497.5,737.833 497.167,737.5 496.5,737.5C 493.89,732.891 490.89,728.558 487.5,724.5 Z"/></g>
<g><path style="opacity:1" fill="#290c07" d="M 520.5,732.5 C 519.91,733.766 519.41,735.099 519,736.5C 515.61,740.393 511.777,743.727 507.5,746.5C 506.584,746.457 505.917,746.124 505.5,745.5C 510.378,743.628 514.045,740.294 516.5,735.5C 517.236,733.771 518.57,732.771 520.5,732.5 Z"/></g>
<g><path style="opacity:1" fill="#f7f9fa" d="M 275.5,773.5 C 281.833,773.5 288.167,773.5 294.5,773.5C 294.833,805.507 294.5,837.507 293.5,869.5C 287.636,870.816 281.803,870.816 276,869.5C 275.5,837.502 275.333,805.502 275.5,773.5 Z"/></g>
<g><path style="opacity:1" fill="#f5f7f7" d="M 748.5,853.5 C 749.568,854.434 750.901,854.768 752.5,854.5C 752.5,859.833 752.5,865.167 752.5,870.5C 749.5,870.5 746.5,870.5 743.5,870.5C 729.818,868.519 723.151,860.519 723.5,846.5C 723.333,822.498 723.5,798.498 724,774.5C 730.084,773.358 736.251,773.191 742.5,774C 743.328,799.094 743.828,824.261 744,849.5C 744.876,851.635 746.376,852.969 748.5,853.5 Z"/></g>
<g><path style="opacity:1" fill="#f7f9f9" d="M 149.5,835.5 C 144.025,834.511 138.358,834.178 132.5,834.5C 132.5,845.833 132.5,857.167 132.5,868.5C 132.082,869.222 131.416,869.722 130.5,870C 124.833,870.667 119.167,870.667 113.5,870C 112.874,869.25 112.374,868.416 112,867.5C 111.333,836.833 111.333,806.167 112,775.5C 127.426,774.343 142.926,774.176 158.5,775C 177.974,777.8 187.14,788.966 186,808.5C 184.953,818.968 179.453,825.634 169.5,828.5C 169.343,829.873 169.51,831.207 170,832.5C 176.74,844.309 183.24,856.309 189.5,868.5C 189.291,869.086 188.957,869.586 188.5,870C 181.833,870.667 175.167,870.667 168.5,870C 162.266,858.358 155.932,846.858 149.5,835.5 Z"/></g>
<g><path style="opacity:1" fill="#f8fafa" d="M 631.5,774.5 C 648.17,774.333 664.837,774.5 681.5,775C 700.633,780.742 708.466,793.575 705,813.5C 701.214,824.952 693.381,831.785 681.5,834C 671.839,834.5 662.172,834.666 652.5,834.5C 652.832,846.186 652.499,857.852 651.5,869.5C 645.552,870.624 639.552,870.79 633.5,870C 633,869.5 632.5,869 632,868.5C 631.5,837.168 631.333,805.835 631.5,774.5 Z"/></g>
<g><path style="opacity:1" fill="#001216" d="M 441.5,901.5 C 441.5,900.167 441.5,898.833 441.5,897.5C 492.167,897.5 542.833,897.5 593.5,897.5C 622.833,897.5 652.167,897.5 681.5,897.5C 681.5,896.167 681.5,894.833 681.5,893.5C 674.833,893.5 668.167,893.5 661.5,893.5C 661.5,890.833 661.5,888.167 661.5,885.5C 662.833,885.5 664.167,885.5 665.5,885.5C 665.5,882.833 665.5,880.167 665.5,877.5C 666.833,877.5 668.167,877.5 669.5,877.5C 669.5,874.833 669.5,872.167 669.5,869.5C 670.833,869.5 672.167,869.5 673.5,869.5C 673.5,866.833 673.5,864.167 673.5,861.5C 674.833,861.5 676.167,861.5 677.5,861.5C 677.5,858.833 677.5,856.167 677.5,853.5C 678.833,853.5 680.167,853.5 681.5,853.5C 681.5,852.167 681.5,850.833 681.5,849.5C 684.167,849.5 686.833,849.5 689.5,849.5C 689.5,848.167 689.5,846.833 689.5,845.5C 692.5,845.5 695.5,845.5 698.5,845.5C 698.167,843.5 697.833,841.5 697.5,839.5C 695.473,839.338 693.473,839.505 691.5,840C 688.539,842.644 685.206,844.478 681.5,845.5C 681.67,844.178 681.337,843.011 680.5,842C 675.845,841.501 671.179,841.334 666.5,841.5C 666.5,840.167 666.5,838.833 666.5,837.5C 672.502,837.366 678.335,837.366 684,837.5C 690.346,836.485 695.346,833.485 699,828.5C 701.573,829.983 703.74,829.483 705.5,827C 704.614,825.098 704.947,823.265 706.5,821.5C 708.642,823.57 709.976,826.07 710.5,829C 712.764,829.236 714.931,829.736 717,830.5C 718.791,828.487 720.125,828.487 721,830.5C 721.333,813.5 721.667,796.5 722,779.5C 722.168,802.004 722.668,824.337 723.5,846.5C 723.151,860.519 729.818,868.519 743.5,870.5C 742.942,871.79 741.942,872.623 740.5,873C 744.81,872.479 749.143,872.812 753.5,874C 752.5,874.333 751.5,874.667 750.5,875C 752.92,875.687 755.087,875.187 757,873.5C 757.269,866.78 756.769,860.113 755.5,853.5C 756.5,853.5 757.5,853.5 758.5,853.5C 758.5,850.833 758.5,848.167 758.5,845.5C 759.5,845.5 760.5,845.5 761.5,845.5C 761.336,848.187 761.503,850.854 762,853.5C 762.779,856.097 763.279,856.097 763.5,853.5C 769.014,867.76 779.347,873.427 794.5,870.5C 796.476,871.778 799.309,872.778 803,873.5C 805.947,870.939 808.78,871.106 811.5,874C 809.405,874.556 809.238,875.056 811,875.5C 813.434,874.678 815.934,874.344 818.5,874.5C 818.5,873.5 818.5,872.5 818.5,871.5C 820.924,871.192 823.257,871.526 825.5,872.5C 824.948,874.003 824.948,875.669 825.5,877.5C 828.167,877.5 830.833,877.5 833.5,877.5C 833.313,872.155 832.98,866.822 832.5,861.5C 831.5,861.5 830.5,861.5 829.5,861.5C 828.948,840.086 829.948,818.753 832.5,797.5C 833.425,798.641 834.259,798.641 835,797.5C 837.349,799.744 836.849,800.911 833.5,801C 834.573,802.313 835.24,803.813 835.5,805.5C 835.099,812.219 834.765,819.052 834.5,826C 834.667,829.833 834.833,833.667 835,837.5C 835.333,832.167 835.667,826.833 836,821.5C 836.667,834.5 836.667,847.5 836,860.5C 832.977,861.985 832.81,863.652 835.5,865.5C 836.883,862.924 837.717,863.258 838,866.5C 838.417,865.244 839.25,864.577 840.5,864.5C 840.261,866.467 840.594,868.301 841.5,870C 847.416,870.807 853.25,870.641 859,869.5C 860.139,852.914 860.972,836.248 861.5,819.5C 867.008,814.311 873.342,813.144 880.5,816C 882.049,817.214 883.215,818.714 884,820.5C 884.029,836.925 884.696,853.258 886,869.5C 891.416,870.639 896.916,870.806 902.5,870C 903.126,869.25 903.626,868.416 904,867.5C 904.667,851.167 904.667,834.833 904,818.5C 898.624,802.059 887.458,795.892 870.5,800C 866.581,801.54 863.081,803.707 860,806.5C 860.03,803.639 859.197,801.305 857.5,799.5C 855.365,797.631 852.698,796.964 849.5,797.5C 849.5,794.833 849.5,792.167 849.5,789.5C 836.167,789.5 822.833,789.5 809.5,789.5C 809.232,792.119 809.565,794.619 810.5,797C 802.173,797.5 793.84,797.666 785.5,797.5C 785.5,794.833 785.5,792.167 785.5,789.5C 778.813,790.505 772.146,790.505 765.5,789.5C 765.5,786.833 765.5,784.167 765.5,781.5C 766.833,781.5 768.167,781.5 769.5,781.5C 769.5,774.833 769.5,768.167 769.5,761.5C 772.167,761.5 774.833,761.5 777.5,761.5C 777.5,760.167 777.5,758.833 777.5,757.5C 780.167,757.5 782.833,757.5 785.5,757.5C 785.5,758.833 785.5,760.167 785.5,761.5C 788.167,761.5 790.833,761.5 793.5,761.5C 793.5,760.167 793.5,758.833 793.5,757.5C 825.5,757.5 857.5,757.5 889.5,757.5C 889.5,758.833 889.5,760.167 889.5,761.5C 894.833,761.5 900.167,761.5 905.5,761.5C 905.5,762.833 905.5,764.167 905.5,765.5C 910.833,765.5 916.167,765.5 921.5,765.5C 921.5,768.167 921.5,770.833 921.5,773.5C 924.167,773.5 926.833,773.5 929.5,773.5C 929.5,776.167 929.5,778.833 929.5,781.5C 930.833,781.5 932.167,781.5 933.5,781.5C 933.5,784.167 933.5,786.833 933.5,789.5C 934.833,789.5 936.167,789.5 937.5,789.5C 937.333,813.502 937.5,837.502 938,861.5C 938.635,863.618 939.469,865.618 940.5,867.5C 939.54,869.477 938.54,871.477 937.5,873.5C 938.13,876.882 937.63,880.215 936,883.5C 934.084,882.072 931.917,881.072 929.5,880.5C 928.478,879.646 927.645,878.646 927,877.5C 926.5,880.667 924.667,882.5 921.5,883C 924.775,885.27 926.109,888.437 925.5,892.5C 924.167,892.5 922.833,892.5 921.5,892.5C 921.5,890.167 921.5,887.833 921.5,885.5C 916.167,885.5 910.833,885.5 905.5,885.5C 905.342,881.788 905.342,878.288 905.5,875C 900.279,874.458 900.279,873.624 905.5,872.5C 900.198,871.337 894.864,871.171 889.5,872C 890.833,872.333 892.167,872.667 893.5,873C 890.478,874.256 887.478,874.589 884.5,874C 886.956,877.107 885.956,878.607 881.5,878.5C 881.5,880.833 881.5,883.167 881.5,885.5C 884.167,885.5 886.833,885.5 889.5,885.5C 889.5,888.167 889.5,890.833 889.5,893.5C 894.833,893.5 900.167,893.5 905.5,893.5C 905.688,895.103 905.188,896.437 904,897.5C 899.667,897.167 895.333,896.833 891,896.5C 890.293,898.081 889.46,899.581 888.5,901C 843.496,901.256 798.496,901.756 753.5,902.5C 649.504,901.536 545.504,901.203 441.5,901.5 Z"/></g>
<g><path style="opacity:1" fill="#041417" d="M 133.5,792.5 C 140.841,792.334 148.174,792.5 155.5,793C 165.104,796.714 167.604,803.214 163,812.5C 159.602,816.023 155.436,817.689 150.5,817.5C 144.833,817.5 139.167,817.5 133.5,817.5C 133.5,809.167 133.5,800.833 133.5,792.5 Z"/></g>
<g><path style="opacity:1" fill="#051419" d="M 652.5,792.5 C 660.917,792.094 669.251,792.594 677.5,794C 684.343,798.2 686.176,804.033 683,811.5C 681.457,813.378 679.624,814.878 677.5,816C 669.236,817.37 660.903,817.87 652.5,817.5C 652.5,809.167 652.5,800.833 652.5,792.5 Z"/></g>
<g><path style="opacity:1" fill="#f8fafa" d="M 225.5,798.5 C 253.029,798.81 265.362,812.81 262.5,840.5C 247.5,840.5 232.5,840.5 217.5,840.5C 220.238,853.355 228.238,858.522 241.5,856C 246.364,854.657 251.031,852.823 255.5,850.5C 258.817,854.948 260.151,859.782 259.5,865C 244.599,873.091 229.599,873.425 214.5,866C 199.92,854.51 195.086,839.677 200,821.5C 204.652,809.338 213.152,801.672 225.5,798.5 Z"/></g>
<g><path style="opacity:1" fill="#f7fafa" d="M 330.5,798.5 C 350.174,796.415 363.008,804.748 369,823.5C 369.499,829.157 369.666,834.824 369.5,840.5C 354.152,840.167 338.819,840.501 323.5,841.5C 327.254,853.215 335.254,858.049 347.5,856C 351.865,854.6 356.199,853.1 360.5,851.5C 363.689,854.694 366.023,858.527 367.5,863C 361.547,867.212 354.88,869.879 347.5,871C 317.039,871.2 303.206,856.033 306,825.5C 309.548,812.127 317.714,803.127 330.5,798.5 Z"/></g>
<g><path style="opacity:1" fill="#f6f8f8" d="M 401.5,798.5 C 411.621,797.572 420.954,799.738 429.5,805C 433.145,808.453 435.645,812.62 437,817.5C 437.268,835.181 437.768,852.848 438.5,870.5C 433.489,870.666 428.489,870.499 423.5,870C 421.47,868.104 419.803,865.937 418.5,863.5C 405.799,874.447 393.299,874.113 381,862.5C 374.03,849.219 376.863,838.719 389.5,831C 398.607,828.513 407.773,826.68 417,825.5C 418.643,820.572 417.143,817.072 412.5,815C 408.167,814.333 403.833,814.333 399.5,815C 395.812,816.182 392.145,817.348 388.5,818.5C 387.274,813.985 385.774,809.651 384,805.5C 384.833,804.667 385.667,803.833 386.5,803C 391.617,801.415 396.617,799.915 401.5,798.5 Z"/></g>
<g><path style="opacity:1" fill="#f7f9f9" d="M 473.5,798.5 C 483.942,797.955 493.942,799.788 503.5,804C 504.022,804.561 504.355,805.228 504.5,806C 502.873,810.088 500.873,813.922 498.5,817.5C 491.104,814.454 483.438,813.287 475.5,814C 470.548,816.954 470.215,820.454 474.5,824.5C 482.315,826.537 489.982,829.037 497.5,832C 506.59,837.357 509.757,845.191 507,855.5C 505.495,860.355 502.662,864.188 498.5,867C 484.961,872.548 471.294,872.882 457.5,868C 454.424,867.089 452.091,865.256 450.5,862.5C 452.136,857.89 454.136,853.556 456.5,849.5C 464.576,855.469 473.576,857.636 483.5,856C 489.542,854.394 490.875,851.06 487.5,846C 479.516,843.339 471.516,840.672 463.5,838C 451.936,830.519 449.436,820.686 456,808.5C 460.946,803.449 466.779,800.115 473.5,798.5 Z"/></g>
<g><path style="opacity:1" fill="#f7f9f9" d="M 553.5,798.5 C 555.414,799.185 557.414,799.685 559.5,800C 576.105,808.377 582.771,821.877 579.5,840.5C 564.5,840.5 549.5,840.5 534.5,840.5C 535.274,847.106 538.608,851.94 544.5,855C 553.892,857.241 562.892,856.074 571.5,851.5C 573.288,852.437 574.621,853.77 575.5,855.5C 576.349,858.035 577.349,860.535 578.5,863C 576.874,864.819 574.874,866.152 572.5,867C 556.621,874.156 541.621,872.823 527.5,863C 514.072,848.094 511.906,831.594 521,813.5C 528.846,802.162 539.679,797.162 553.5,798.5 Z"/></g>
<g><path style="opacity:1" fill="#f5f7f7" d="M 840.5,864.5 C 840.333,843.164 840.5,821.831 841,800.5C 846.407,799.527 851.907,799.193 857.5,799.5C 859.197,801.305 860.03,803.639 860,806.5C 863.081,803.707 866.581,801.54 870.5,800C 887.458,795.892 898.624,802.059 904,818.5C 904.667,834.833 904.667,851.167 904,867.5C 903.626,868.416 903.126,869.25 902.5,870C 896.916,870.806 891.416,870.639 886,869.5C 884.696,853.258 884.029,836.925 884,820.5C 883.215,818.714 882.049,817.214 880.5,816C 873.342,813.144 867.008,814.311 861.5,819.5C 860.972,836.248 860.139,852.914 859,869.5C 853.25,870.641 847.416,870.807 841.5,870C 840.594,868.301 840.261,866.467 840.5,864.5 Z"/></g>
<g><path style="opacity:1" fill="#f6f8f8" d="M 794.5,870.5 C 779.347,873.427 769.014,867.76 763.5,853.5C 763.151,845.703 765.818,839.203 771.5,834C 780.644,828.293 790.644,825.96 801.5,827C 806.305,821.151 804.972,816.817 797.5,814C 790.103,813.513 783.103,815.013 776.5,818.5C 773.772,814.066 771.939,809.4 771,804.5C 782.253,798.588 794.087,797.088 806.5,800C 814.087,801.918 819.587,806.418 823,813.5C 824.181,832.473 825.014,851.473 825.5,870.5C 820.489,870.666 815.489,870.499 810.5,870C 808.628,867.707 807.128,865.207 806,862.5C 803.039,866.66 799.205,869.327 794.5,870.5 Z"/></g>
<g><path style="opacity:1" fill="#70797d" d="M 133.5,792.5 C 133.5,800.833 133.5,809.167 133.5,817.5C 139.167,817.5 144.833,817.5 150.5,817.5C 144.69,818.49 138.69,818.823 132.5,818.5C 132.174,809.651 132.507,800.984 133.5,792.5 Z"/></g>
<g><path style="opacity:1" fill="#061317" d="M 244.5,827.5 C 235.318,827.827 226.318,827.493 217.5,826.5C 219.732,816.102 226.065,811.935 236.5,814C 241.889,816.953 244.556,821.453 244.5,827.5 Z"/></g>
<g><path style="opacity:1" fill="#061518" d="M 351.5,825.5 C 347.386,826.826 342.886,827.493 338,827.5C 333.114,827.493 328.614,826.826 324.5,825.5C 329.576,812.362 337.743,810.028 349,818.5C 350.411,820.65 351.245,822.984 351.5,825.5 Z"/></g>
<g><path style="opacity:1" fill="#061416" d="M 561.5,825.5 C 556.41,827.144 551.077,828.144 545.5,828.5C 541.833,828.5 538.167,828.5 534.5,828.5C 536.707,815.231 544.041,811.064 556.5,816C 559.359,818.552 561.026,821.719 561.5,825.5 Z"/></g>
<g><path style="opacity:1" fill="#eff2f3" d="M 615.5,822.5 C 616.671,823.345 618.005,824.011 619.5,824.5C 621.542,830.03 620.542,834.863 616.5,839C 608.063,839.937 599.73,839.604 591.5,838C 588.624,832.795 588.957,827.795 592.5,823C 600.159,822.5 607.826,822.334 615.5,822.5 Z"/></g>
<g><path style="opacity:1" fill="#455657" d="M 217.5,826.5 C 226.318,827.493 235.318,827.827 244.5,827.5C 235.325,828.822 225.992,828.822 216.5,827.5C 216.624,826.893 216.957,826.56 217.5,826.5 Z"/></g>
<g><path style="opacity:1" fill="#5a6d6a" d="M 324.5,825.5 C 328.614,826.826 333.114,827.493 338,827.5C 342.886,827.493 347.386,826.826 351.5,825.5C 352.404,826.209 352.737,827.209 352.5,828.5C 342.833,828.5 333.167,828.5 323.5,828.5C 323.263,827.209 323.596,826.209 324.5,825.5 Z"/></g>
<g><path style="opacity:1" fill="#4e615e" d="M 561.5,825.5 C 562.404,826.209 562.737,827.209 562.5,828.5C 556.833,828.5 551.167,828.5 545.5,828.5C 551.077,828.144 556.41,827.144 561.5,825.5 Z"/></g>
<g><path style="opacity:1" fill="#485254" d="M 149.5,835.5 C 144.167,835.5 138.833,835.5 133.5,835.5C 133.828,846.679 133.495,857.679 132.5,868.5C 132.5,857.167 132.5,845.833 132.5,834.5C 138.358,834.178 144.025,834.511 149.5,835.5 Z"/></g>
<g><path style="opacity:1" fill="#071416" d="M 791.5,839.5 C 795.833,839.5 800.167,839.5 804.5,839.5C 805.532,853.632 799.198,858.799 785.5,855C 781.554,851.128 781.554,847.294 785.5,843.5C 787.565,842.143 789.565,840.81 791.5,839.5 Z"/></g>
<g><path style="opacity:1" fill="#081518" d="M 405.5,839.5 C 409.5,839.5 413.5,839.5 417.5,839.5C 418.733,852.764 412.733,858.264 399.5,856C 393.772,850.282 394.438,845.282 401.5,841C 403.058,840.79 404.391,840.29 405.5,839.5 Z"/></g>
<g><path style="opacity:1" fill="#616b6f" d="M 748.5,853.5 C 750.167,853.5 751.833,853.5 753.5,853.5C 753.822,859.358 753.489,865.025 752.5,870.5C 752.5,865.167 752.5,859.833 752.5,854.5C 750.901,854.768 749.568,854.434 748.5,853.5 Z"/></g>
</svg>
